<svg xmlns="http://www.w3.org/2000/svg" xmlns:xlink="http://www.w3.org/1999/xlink" width="1440" viewBox="0 0 1440 810" height="810" version="1.0"><defs><g id="b"><path d="M 8.734375 0 L 8.734375 -1.09375 C 8.316406 -0.695312 7.816406 -0.359375 7.234375 -0.078125 C 6.648438 0.191406 6.03125 0.328125 5.375 0.328125 C 4.050781 0.328125 3.03125 -0.171875 2.3125 -1.171875 C 1.59375 -2.171875 1.234375 -3.585938 1.234375 -5.421875 C 1.234375 -7.222656 1.625 -8.65625 2.40625 -9.71875 C 3.1875 -10.789062 4.269531 -11.328125 5.65625 -11.328125 C 6.769531 -11.328125 7.796875 -10.921875 8.734375 -10.109375 L 8.734375 -15.640625 L 10.546875 -15.640625 L 10.546875 0 Z M 8.734375 -8.546875 C 7.773438 -9.335938 6.828125 -9.734375 5.890625 -9.734375 C 5.078125 -9.734375 4.40625 -9.382812 3.875 -8.6875 C 3.351562 -8 3.09375 -6.925781 3.09375 -5.46875 C 3.09375 -2.6875 3.96875 -1.296875 5.71875 -1.296875 C 6.300781 -1.296875 6.851562 -1.4375 7.375 -1.71875 C 7.894531 -2.007812 8.347656 -2.335938 8.734375 -2.703125 Z M 8.734375 -8.546875"/></g><g id="c"><path d="M 3.875 -13.8125 C 3.875 -13.394531 3.78125 -13.109375 3.59375 -12.953125 C 3.40625 -12.804688 3.101562 -12.734375 2.6875 -12.734375 C 2.25 -12.734375 1.941406 -12.828125 1.765625 -13.015625 C 1.597656 -13.203125 1.515625 -13.46875 1.515625 -13.8125 C 1.515625 -14.1875 1.601562 -14.457031 1.78125 -14.625 C 1.96875 -14.800781 2.269531 -14.890625 2.6875 -14.890625 C 3.113281 -14.890625 3.414062 -14.804688 3.59375 -14.640625 C 3.78125 -14.472656 3.875 -14.195312 3.875 -13.8125 Z M 1.78125 0 L 1.78125 -11.015625 L 3.59375 -11.015625 L 3.59375 0 Z M 1.78125 0"/></g><g id="d"><path d="M 8.703125 0 L 8.703125 -6.5 C 8.703125 -7.539062 8.648438 -8.238281 8.546875 -8.59375 C 8.441406 -8.945312 8.269531 -9.203125 8.03125 -9.359375 C 7.789062 -9.515625 7.445312 -9.59375 7 -9.59375 C 6.53125 -9.59375 5.988281 -9.414062 5.375 -9.0625 C 4.757812 -8.71875 4.164062 -8.289062 3.59375 -7.78125 L 3.59375 0 L 1.78125 0 L 1.78125 -11.015625 L 3.59375 -11.015625 L 3.59375 -9.375 C 4.101562 -9.894531 4.695312 -10.347656 5.375 -10.734375 C 6.050781 -11.128906 6.734375 -11.328125 7.421875 -11.328125 C 8.492188 -11.328125 9.273438 -11.023438 9.765625 -10.421875 C 10.265625 -9.816406 10.515625 -8.796875 10.515625 -7.359375 L 10.515625 0 Z M 8.703125 0"/></g><g id="e"><path d="M 8.046875 0 L 8.046875 -1.375 C 7.484375 -0.882812 6.914062 -0.476562 6.34375 -0.15625 C 5.78125 0.164062 5.144531 0.328125 4.4375 0.328125 C 3.382812 0.328125 2.570312 0.0078125 2 -0.625 C 1.425781 -1.269531 1.140625 -2.09375 1.140625 -3.09375 C 1.140625 -3.851562 1.285156 -4.484375 1.578125 -4.984375 C 1.878906 -5.484375 2.3125 -5.878906 2.875 -6.171875 C 3.445312 -6.460938 4.269531 -6.671875 5.34375 -6.796875 L 8.046875 -7.03125 L 8.046875 -7.578125 C 8.046875 -8.421875 7.804688 -8.992188 7.328125 -9.296875 C 6.859375 -9.609375 6.207031 -9.765625 5.375 -9.765625 C 4.632812 -9.765625 4.0625 -9.632812 3.65625 -9.375 C 3.257812 -9.125 2.972656 -8.847656 2.796875 -8.546875 L 1.3125 -9.4375 C 1.644531 -10.050781 2.15625 -10.519531 2.84375 -10.84375 C 3.539062 -11.164062 4.398438 -11.328125 5.421875 -11.328125 C 7.003906 -11.328125 8.140625 -11.039062 8.828125 -10.46875 C 9.515625 -9.894531 9.859375 -8.898438 9.859375 -7.484375 L 9.859375 0 Z M 8.046875 -5.59375 L 6.28125 -5.421875 C 5.082031 -5.316406 4.238281 -5.082031 3.75 -4.71875 C 3.257812 -4.363281 3.015625 -3.835938 3.015625 -3.140625 C 3.015625 -2.484375 3.175781 -2.007812 3.5 -1.71875 C 3.832031 -1.4375 4.328125 -1.296875 4.984375 -1.296875 C 5.265625 -1.296875 5.535156 -1.34375 5.796875 -1.4375 C 6.066406 -1.539062 6.328125 -1.664062 6.578125 -1.8125 C 6.835938 -1.96875 7.085938 -2.140625 7.328125 -2.328125 C 7.578125 -2.523438 7.816406 -2.71875 8.046875 -2.90625 Z M 7.640625 -12.6875 L 5.703125 -15.1875 L 3.765625 -12.6875 L 2.203125 -12.6875 L 4.59375 -16.484375 L 6.8125 -16.484375 L 9.21875 -12.6875 Z M 7.640625 -12.6875"/></g><g id="f"><path d="M 14.484375 0 L 14.484375 -6.5 C 14.484375 -7.582031 14.4375 -8.300781 14.34375 -8.65625 C 14.257812 -9.007812 14.113281 -9.253906 13.90625 -9.390625 C 13.695312 -9.523438 13.378906 -9.59375 12.953125 -9.59375 C 12.585938 -9.59375 12.175781 -9.460938 11.71875 -9.203125 C 11.269531 -8.941406 10.675781 -8.46875 9.9375 -7.78125 L 9.9375 0 L 8.125 0 L 8.125 -6.5 C 8.125 -7.53125 8.082031 -8.226562 8 -8.59375 C 7.914062 -8.957031 7.769531 -9.210938 7.5625 -9.359375 C 7.363281 -9.515625 7.050781 -9.59375 6.625 -9.59375 C 6.238281 -9.59375 5.78125 -9.4375 5.25 -9.125 C 4.726562 -8.8125 4.175781 -8.363281 3.59375 -7.78125 L 3.59375 0 L 1.78125 0 L 1.78125 -11.015625 L 3.59375 -11.015625 L 3.59375 -9.375 C 4.070312 -9.894531 4.601562 -10.347656 5.1875 -10.734375 C 5.78125 -11.128906 6.410156 -11.328125 7.078125 -11.328125 C 7.816406 -11.328125 8.410156 -11.15625 8.859375 -10.8125 C 9.304688 -10.476562 9.601562 -9.9375 9.75 -9.1875 C 10.320312 -9.789062 10.90625 -10.296875 11.5 -10.703125 C 12.09375 -11.117188 12.753906 -11.328125 13.484375 -11.328125 C 14.160156 -11.328125 14.703125 -11.1875 15.109375 -10.90625 C 15.515625 -10.625 15.8125 -10.210938 16 -9.671875 C 16.1875 -9.140625 16.28125 -8.367188 16.28125 -7.359375 L 16.28125 0 Z M 14.484375 0"/></g><g id="g"><path d="M 10.0625 -1.703125 C 9.71875 -1.109375 9.238281 -0.617188 8.625 -0.234375 C 8.019531 0.140625 7.179688 0.328125 6.109375 0.328125 C 4.492188 0.328125 3.273438 -0.160156 2.453125 -1.140625 C 1.640625 -2.117188 1.234375 -3.566406 1.234375 -5.484375 C 1.234375 -7.398438 1.640625 -8.851562 2.453125 -9.84375 C 3.265625 -10.832031 4.460938 -11.328125 6.046875 -11.328125 C 7.859375 -11.328125 9.148438 -10.65625 9.921875 -9.3125 L 8.4375 -8.421875 C 8.164062 -8.847656 7.84375 -9.175781 7.46875 -9.40625 C 7.101562 -9.644531 6.617188 -9.765625 6.015625 -9.765625 C 4.960938 -9.765625 4.210938 -9.378906 3.765625 -8.609375 C 3.316406 -7.847656 3.09375 -6.789062 3.09375 -5.4375 C 3.09375 -4.40625 3.195312 -3.601562 3.40625 -3.03125 C 3.625 -2.457031 3.953125 -2.015625 4.390625 -1.703125 C 4.835938 -1.398438 5.40625 -1.25 6.09375 -1.25 C 6.675781 -1.25 7.15625 -1.359375 7.53125 -1.578125 C 7.90625 -1.796875 8.253906 -2.140625 8.578125 -2.609375 Z M 10.0625 -1.703125"/></g><g id="h"><path d="M 8.046875 0 L 8.046875 -1.375 C 7.484375 -0.882812 6.914062 -0.476562 6.34375 -0.15625 C 5.78125 0.164062 5.144531 0.328125 4.4375 0.328125 C 3.382812 0.328125 2.570312 0.0078125 2 -0.625 C 1.425781 -1.269531 1.140625 -2.09375 1.140625 -3.09375 C 1.140625 -3.851562 1.285156 -4.484375 1.578125 -4.984375 C 1.878906 -5.484375 2.3125 -5.878906 2.875 -6.171875 C 3.445312 -6.460938 4.269531 -6.671875 5.34375 -6.796875 L 8.046875 -7.03125 L 8.046875 -7.578125 C 8.046875 -8.421875 7.804688 -8.992188 7.328125 -9.296875 C 6.859375 -9.609375 6.207031 -9.765625 5.375 -9.765625 C 4.632812 -9.765625 4.0625 -9.632812 3.65625 -9.375 C 3.257812 -9.125 2.972656 -8.847656 2.796875 -8.546875 L 1.3125 -9.4375 C 1.644531 -10.050781 2.15625 -10.519531 2.84375 -10.84375 C 3.539062 -11.164062 4.398438 -11.328125 5.421875 -11.328125 C 7.003906 -11.328125 8.140625 -11.039062 8.828125 -10.46875 C 9.515625 -9.894531 9.859375 -8.898438 9.859375 -7.484375 L 9.859375 0 Z M 8.046875 -5.59375 L 6.28125 -5.421875 C 5.082031 -5.316406 4.238281 -5.082031 3.75 -4.71875 C 3.257812 -4.363281 3.015625 -3.835938 3.015625 -3.140625 C 3.015625 -2.484375 3.175781 -2.007812 3.5 -1.71875 C 3.832031 -1.4375 4.328125 -1.296875 4.984375 -1.296875 C 5.265625 -1.296875 5.535156 -1.34375 5.796875 -1.4375 C 6.066406 -1.539062 6.328125 -1.664062 6.578125 -1.8125 C 6.835938 -1.96875 7.085938 -2.140625 7.328125 -2.328125 C 7.578125 -2.523438 7.816406 -2.71875 8.046875 -2.90625 Z M 8.046875 -5.59375"/></g><g id="i"><path d="M 1.875 0 L 1.875 -15.640625 L 3.671875 -15.640625 L 3.671875 0 Z M 1.875 0"/></g><g id="j"><path d="M 10.921875 -5.484375 C 10.921875 -3.566406 10.507812 -2.117188 9.6875 -1.140625 C 8.863281 -0.160156 7.664062 0.328125 6.09375 0.328125 C 4.519531 0.328125 3.316406 -0.15625 2.484375 -1.125 C 1.648438 -2.09375 1.234375 -3.546875 1.234375 -5.484375 C 1.234375 -7.453125 1.648438 -8.914062 2.484375 -9.875 C 3.316406 -10.84375 4.519531 -11.328125 6.09375 -11.328125 C 7.675781 -11.328125 8.875 -10.835938 9.6875 -9.859375 C 10.507812 -8.878906 10.921875 -7.421875 10.921875 -5.484375 Z M 9.0625 -5.484375 C 9.0625 -6.984375 8.8125 -8.070312 8.3125 -8.75 C 7.820312 -9.425781 7.082031 -9.765625 6.09375 -9.765625 C 5.070312 -9.765625 4.316406 -9.421875 3.828125 -8.734375 C 3.335938 -8.054688 3.09375 -6.972656 3.09375 -5.484375 C 3.09375 -4.046875 3.328125 -2.976562 3.796875 -2.28125 C 4.273438 -1.59375 5.039062 -1.25 6.09375 -1.25 C 7.09375 -1.25 7.835938 -1.59375 8.328125 -2.28125 C 8.816406 -2.96875 9.0625 -4.035156 9.0625 -5.484375 Z M 9.0625 -5.484375"/></g><g id="l"><path d="M 7.296875 0 C 6.585938 0.21875 5.890625 0.328125 5.203125 0.328125 C 4.085938 0.328125 3.285156 0.0351562 2.796875 -0.546875 C 2.304688 -1.140625 2.0625 -2.066406 2.0625 -3.328125 L 2.0625 -9.5 L 0.5 -9.5 L 0.5 -11.015625 L 2.0625 -11.015625 L 2.0625 -14.09375 L 3.875 -14.09375 L 3.875 -11.015625 L 6.671875 -11.015625 L 6.671875 -9.5 L 3.875 -9.5 L 3.875 -3.671875 C 3.875 -2.785156 3.960938 -2.148438 4.140625 -1.765625 C 4.316406 -1.378906 4.71875 -1.1875 5.34375 -1.1875 C 5.875 -1.1875 6.363281 -1.285156 6.8125 -1.484375 Z M 7.296875 0"/></g><g id="m"><path d="M 3.09375 -5.296875 C 3.09375 -3.835938 3.34375 -2.796875 3.84375 -2.171875 C 4.34375 -1.554688 5.140625 -1.25 6.234375 -1.25 C 6.722656 -1.25 7.15625 -1.351562 7.53125 -1.5625 C 7.90625 -1.769531 8.265625 -2.101562 8.609375 -2.5625 L 10.09375 -1.640625 C 9.675781 -1.003906 9.164062 -0.515625 8.5625 -0.171875 C 7.957031 0.160156 7.140625 0.328125 6.109375 0.328125 C 4.472656 0.328125 3.25 -0.144531 2.4375 -1.09375 C 1.632812 -2.050781 1.234375 -3.492188 1.234375 -5.421875 C 1.234375 -7.441406 1.625 -8.929688 2.40625 -9.890625 C 3.195312 -10.847656 4.390625 -11.328125 5.984375 -11.328125 C 7.410156 -11.328125 8.476562 -10.914062 9.1875 -10.09375 C 9.90625 -9.269531 10.265625 -8.003906 10.265625 -6.296875 L 10.265625 -5.296875 Z M 8.5 -6.71875 C 8.488281 -7.695312 8.28125 -8.457031 7.875 -9 C 7.46875 -9.550781 6.816406 -9.828125 5.921875 -9.828125 C 5.054688 -9.828125 4.40625 -9.582031 3.96875 -9.09375 C 3.539062 -8.601562 3.257812 -7.8125 3.125 -6.71875 Z M 8.5 -6.71875"/></g><g id="n"><path d="M 8.625 0 L 8.625 -1.640625 C 8.0625 -1.078125 7.441406 -0.609375 6.765625 -0.234375 C 6.097656 0.140625 5.441406 0.328125 4.796875 0.328125 C 4.066406 0.328125 3.472656 0.191406 3.015625 -0.078125 C 2.554688 -0.359375 2.222656 -0.773438 2.015625 -1.328125 C 1.804688 -1.890625 1.703125 -2.664062 1.703125 -3.65625 L 1.703125 -11.015625 L 3.515625 -11.015625 L 3.515625 -4.515625 C 3.515625 -3.460938 3.566406 -2.757812 3.671875 -2.40625 C 3.773438 -2.0625 3.945312 -1.8125 4.1875 -1.65625 C 4.425781 -1.5 4.773438 -1.421875 5.234375 -1.421875 C 5.691406 -1.421875 6.226562 -1.597656 6.84375 -1.953125 C 7.457031 -2.304688 8.050781 -2.726562 8.625 -3.21875 L 8.625 -11.015625 L 10.4375 -11.015625 L 10.4375 0 Z M 8.625 0"/></g><g id="o"><path d="M 7.75 -9.234375 C 7.550781 -9.316406 7.269531 -9.359375 6.90625 -9.359375 C 6.363281 -9.359375 5.84375 -9.234375 5.34375 -8.984375 C 4.84375 -8.734375 4.257812 -8.273438 3.59375 -7.609375 L 3.59375 0 L 1.78125 0 L 1.78125 -11.015625 L 3.59375 -11.015625 L 3.59375 -9.234375 C 4.09375 -9.742188 4.617188 -10.195312 5.171875 -10.59375 C 5.734375 -10.988281 6.351562 -11.1875 7.03125 -11.1875 C 7.488281 -11.1875 7.851562 -11.113281 8.125 -10.96875 Z M 7.75 -9.234375"/></g><g id="p"><path d="M 9.3125 -2.96875 C 9.3125 -1.9375 8.945312 -1.128906 8.21875 -0.546875 C 7.5 0.0351562 6.460938 0.328125 5.109375 0.328125 C 4.191406 0.328125 3.367188 0.15625 2.640625 -0.1875 C 1.921875 -0.539062 1.390625 -1.03125 1.046875 -1.65625 L 2.5 -2.546875 C 3.050781 -1.648438 3.941406 -1.203125 5.171875 -1.203125 C 5.960938 -1.203125 6.554688 -1.351562 6.953125 -1.65625 C 7.347656 -1.96875 7.546875 -2.382812 7.546875 -2.90625 C 7.546875 -3.207031 7.476562 -3.453125 7.34375 -3.640625 C 7.207031 -3.835938 6.988281 -4.007812 6.6875 -4.15625 C 6.394531 -4.300781 5.796875 -4.492188 4.890625 -4.734375 C 3.578125 -5.035156 2.648438 -5.453125 2.109375 -5.984375 C 1.578125 -6.515625 1.3125 -7.222656 1.3125 -8.109375 C 1.3125 -9.085938 1.660156 -9.867188 2.359375 -10.453125 C 3.066406 -11.035156 4.039062 -11.328125 5.28125 -11.328125 C 6.238281 -11.328125 7.039062 -11.140625 7.6875 -10.765625 C 8.34375 -10.390625 8.820312 -9.9375 9.125 -9.40625 L 7.671875 -8.515625 C 7.097656 -9.378906 6.285156 -9.8125 5.234375 -9.8125 C 4.628906 -9.8125 4.117188 -9.675781 3.703125 -9.40625 C 3.285156 -9.144531 3.078125 -8.734375 3.078125 -8.171875 C 3.078125 -7.671875 3.257812 -7.304688 3.625 -7.078125 C 3.988281 -6.859375 4.5625 -6.65625 5.34375 -6.46875 C 6.582031 -6.144531 7.441406 -5.84375 7.921875 -5.5625 C 8.398438 -5.28125 8.75 -4.9375 8.96875 -4.53125 C 9.195312 -4.125 9.3125 -3.601562 9.3125 -2.96875 Z M 9.3125 -2.96875"/></g><g id="q"><path d="M 11.109375 -5.59375 C 11.109375 -3.78125 10.710938 -2.335938 9.921875 -1.265625 C 9.128906 -0.203125 8.046875 0.328125 6.671875 0.328125 C 5.566406 0.328125 4.539062 -0.0820312 3.59375 -0.90625 L 3.59375 4.15625 L 1.78125 4.15625 L 1.78125 -11.015625 L 3.59375 -11.015625 L 3.59375 -9.921875 C 4.007812 -10.316406 4.503906 -10.648438 5.078125 -10.921875 C 5.660156 -11.191406 6.285156 -11.328125 6.953125 -11.328125 C 8.265625 -11.328125 9.285156 -10.832031 10.015625 -9.84375 C 10.742188 -8.851562 11.109375 -7.4375 11.109375 -5.59375 Z M 9.234375 -5.546875 C 9.234375 -8.335938 8.359375 -9.734375 6.609375 -9.734375 C 6.035156 -9.734375 5.484375 -9.585938 4.953125 -9.296875 C 4.429688 -9.003906 3.976562 -8.675781 3.59375 -8.3125 L 3.59375 -2.484375 C 4.53125 -1.691406 5.472656 -1.296875 6.421875 -1.296875 C 7.242188 -1.296875 7.914062 -1.632812 8.4375 -2.3125 C 8.96875 -3 9.234375 -4.078125 9.234375 -5.546875 Z M 9.234375 -5.546875"/></g><g id="r"><path d="M 10.921875 -5.484375 C 10.921875 -3.566406 10.507812 -2.117188 9.6875 -1.140625 C 8.863281 -0.160156 7.664062 0.328125 6.09375 0.328125 C 4.519531 0.328125 3.316406 -0.15625 2.484375 -1.125 C 1.648438 -2.09375 1.234375 -3.546875 1.234375 -5.484375 C 1.234375 -7.453125 1.648438 -8.914062 2.484375 -9.875 C 3.316406 -10.84375 4.519531 -11.328125 6.09375 -11.328125 C 7.675781 -11.328125 8.875 -10.835938 9.6875 -9.859375 C 10.507812 -8.878906 10.921875 -7.421875 10.921875 -5.484375 Z M 9.0625 -5.484375 C 9.0625 -6.984375 8.8125 -8.070312 8.3125 -8.75 C 7.820312 -9.425781 7.082031 -9.765625 6.09375 -9.765625 C 5.070312 -9.765625 4.316406 -9.421875 3.828125 -8.734375 C 3.335938 -8.054688 3.09375 -6.972656 3.09375 -5.484375 C 3.09375 -4.046875 3.328125 -2.976562 3.796875 -2.28125 C 4.273438 -1.59375 5.039062 -1.25 6.09375 -1.25 C 7.09375 -1.25 7.835938 -1.59375 8.328125 -2.28125 C 8.816406 -2.96875 9.0625 -4.035156 9.0625 -5.484375 Z M 6.546875 -12.6875 L 5.046875 -12.6875 L 6.921875 -16.484375 L 9.40625 -16.484375 Z M 6.546875 -12.6875"/></g><g id="ae"><path d="M 7.78125 0 L 5.25 -4.1875 L 2.625 0 L 0.578125 0 L 4.234375 -5.4375 L 0.625 -11.015625 L 2.84375 -11.015625 L 5.375 -6.84375 L 7.984375 -11.015625 L 10.046875 -11.015625 L 6.390625 -5.5625 L 10.046875 0 Z M 7.78125 0"/></g><g id="af"><path d="M 10.546875 -0.234375 C 10.546875 1.234375 10.179688 2.332031 9.453125 3.0625 C 8.722656 3.789062 7.507812 4.15625 5.8125 4.15625 C 4.195312 4.15625 2.863281 3.8125 1.8125 3.125 L 2.484375 1.65625 C 3.421875 2.3125 4.53125 2.640625 5.8125 2.640625 C 6.84375 2.640625 7.585938 2.425781 8.046875 2 C 8.503906 1.570312 8.734375 0.863281 8.734375 -0.125 L 8.734375 -1.421875 C 8.316406 -1.015625 7.820312 -0.675781 7.25 -0.40625 C 6.675781 -0.132812 6.050781 0 5.375 0 C 4.019531 0 2.988281 -0.476562 2.28125 -1.4375 C 1.582031 -2.40625 1.234375 -3.800781 1.234375 -5.625 C 1.234375 -7.414062 1.628906 -8.8125 2.421875 -9.8125 C 3.210938 -10.820312 4.289062 -11.328125 5.65625 -11.328125 C 6.769531 -11.328125 7.796875 -10.921875 8.734375 -10.109375 L 8.734375 -11.015625 L 10.546875 -11.015625 Z M 8.734375 -8.546875 C 7.773438 -9.335938 6.828125 -9.734375 5.890625 -9.734375 C 4.972656 -9.734375 4.273438 -9.375 3.796875 -8.65625 C 3.328125 -7.9375 3.09375 -6.9375 3.09375 -5.65625 C 3.09375 -4.25 3.3125 -3.222656 3.75 -2.578125 C 4.195312 -1.941406 4.851562 -1.625 5.71875 -1.625 C 6.726562 -1.625 7.734375 -2.09375 8.734375 -3.03125 Z M 8.734375 -8.546875"/></g><g id="ag"><path d="M 8.5625 2.265625 C 8.5625 2.859375 8.320312 3.320312 7.84375 3.65625 C 7.363281 3.988281 6.707031 4.15625 5.875 4.15625 C 5.320312 4.15625 4.800781 4.09375 4.3125 3.96875 C 3.832031 3.84375 3.507812 3.738281 3.34375 3.65625 L 3.890625 2.609375 C 4.085938 2.671875 4.382812 2.742188 4.78125 2.828125 C 5.175781 2.910156 5.554688 2.953125 5.921875 2.953125 C 6.765625 2.953125 7.1875 2.675781 7.1875 2.125 C 7.1875 1.851562 7.035156 1.617188 6.734375 1.421875 C 6.441406 1.222656 5.976562 1.097656 5.34375 1.046875 L 5.71875 0.296875 C 4.238281 0.222656 3.117188 -0.296875 2.359375 -1.265625 C 1.609375 -2.234375 1.234375 -3.640625 1.234375 -5.484375 C 1.234375 -7.398438 1.640625 -8.851562 2.453125 -9.84375 C 3.265625 -10.832031 4.460938 -11.328125 6.046875 -11.328125 C 7.859375 -11.328125 9.148438 -10.65625 9.921875 -9.3125 L 8.4375 -8.421875 C 8.164062 -8.847656 7.84375 -9.175781 7.46875 -9.40625 C 7.101562 -9.644531 6.617188 -9.765625 6.015625 -9.765625 C 4.960938 -9.765625 4.210938 -9.378906 3.765625 -8.609375 C 3.316406 -7.847656 3.09375 -6.789062 3.09375 -5.4375 C 3.09375 -4.40625 3.195312 -3.601562 3.40625 -3.03125 C 3.625 -2.457031 3.953125 -2.015625 4.390625 -1.703125 C 4.835938 -1.398438 5.40625 -1.25 6.09375 -1.25 C 6.675781 -1.25 7.15625 -1.359375 7.53125 -1.578125 C 7.90625 -1.796875 8.253906 -2.140625 8.578125 -2.609375 L 10.0625 -1.703125 C 9.757812 -1.179688 9.359375 -0.742188 8.859375 -0.390625 C 8.359375 -0.0351562 7.691406 0.1875 6.859375 0.28125 L 6.84375 0.328125 C 7.445312 0.484375 7.882812 0.738281 8.15625 1.09375 C 8.425781 1.457031 8.5625 1.847656 8.5625 2.265625 Z M 8.5625 2.265625"/></g><g id="ah"><path d="M 8.046875 0 L 8.046875 -1.375 C 7.484375 -0.882812 6.914062 -0.476562 6.34375 -0.15625 C 5.78125 0.164062 5.144531 0.328125 4.4375 0.328125 C 3.382812 0.328125 2.570312 0.0078125 2 -0.625 C 1.425781 -1.269531 1.140625 -2.09375 1.140625 -3.09375 C 1.140625 -3.851562 1.285156 -4.484375 1.578125 -4.984375 C 1.878906 -5.484375 2.3125 -5.878906 2.875 -6.171875 C 3.445312 -6.460938 4.269531 -6.671875 5.34375 -6.796875 L 8.046875 -7.03125 L 8.046875 -7.578125 C 8.046875 -8.421875 7.804688 -8.992188 7.328125 -9.296875 C 6.859375 -9.609375 6.207031 -9.765625 5.375 -9.765625 C 4.632812 -9.765625 4.0625 -9.632812 3.65625 -9.375 C 3.257812 -9.125 2.972656 -8.847656 2.796875 -8.546875 L 1.3125 -9.4375 C 1.644531 -10.050781 2.15625 -10.519531 2.84375 -10.84375 C 3.539062 -11.164062 4.398438 -11.328125 5.421875 -11.328125 C 7.003906 -11.328125 8.140625 -11.039062 8.828125 -10.46875 C 9.515625 -9.894531 9.859375 -8.898438 9.859375 -7.484375 L 9.859375 0 Z M 8.046875 -5.59375 L 6.28125 -5.421875 C 5.082031 -5.316406 4.238281 -5.082031 3.75 -4.71875 C 3.257812 -4.363281 3.015625 -3.835938 3.015625 -3.140625 C 3.015625 -2.484375 3.175781 -2.007812 3.5 -1.71875 C 3.832031 -1.4375 4.328125 -1.296875 4.984375 -1.296875 C 5.265625 -1.296875 5.535156 -1.34375 5.796875 -1.4375 C 6.066406 -1.539062 6.328125 -1.664062 6.578125 -1.8125 C 6.835938 -1.96875 7.085938 -2.140625 7.328125 -2.328125 C 7.578125 -2.523438 7.816406 -2.71875 8.046875 -2.90625 Z M 1.75 -12.828125 C 1.789062 -13.703125 2.023438 -14.378906 2.453125 -14.859375 C 2.878906 -15.335938 3.445312 -15.578125 4.15625 -15.578125 C 4.539062 -15.578125 4.875 -15.5 5.15625 -15.34375 C 5.445312 -15.1875 5.710938 -15.015625 5.953125 -14.828125 C 6.203125 -14.648438 6.429688 -14.484375 6.640625 -14.328125 C 6.859375 -14.171875 7.097656 -14.09375 7.359375 -14.09375 C 7.972656 -14.09375 8.3125 -14.539062 8.375 -15.4375 L 9.640625 -15.4375 C 9.503906 -13.601562 8.691406 -12.6875 7.203125 -12.6875 C 6.753906 -12.6875 6.390625 -12.765625 6.109375 -12.921875 C 5.828125 -13.078125 5.578125 -13.253906 5.359375 -13.453125 C 5.140625 -13.648438 4.929688 -13.828125 4.734375 -13.984375 C 4.546875 -14.140625 4.3125 -14.21875 4.03125 -14.21875 C 3.664062 -14.21875 3.410156 -14.09375 3.265625 -13.84375 C 3.128906 -13.59375 3.046875 -13.253906 3.015625 -12.828125 Z M 1.75 -12.828125"/></g><g id="ai"><path d="M 6.171875 0 L 4.390625 0 L 0.53125 -11.015625 L 2.484375 -11.015625 L 5.34375 -2.359375 L 8.171875 -11.015625 L 10.046875 -11.015625 Z M 6.171875 0"/></g><g id="s"><path d="M 10.46875 -1.765625 C 10.113281 -1.160156 9.617188 -0.65625 8.984375 -0.25 C 8.347656 0.144531 7.472656 0.34375 6.359375 0.34375 C 4.671875 0.34375 3.398438 -0.160156 2.546875 -1.171875 C 1.703125 -2.191406 1.28125 -3.703125 1.28125 -5.703125 C 1.28125 -7.703125 1.703125 -9.210938 2.546875 -10.234375 C 3.390625 -11.265625 4.632812 -11.78125 6.28125 -11.78125 C 8.164062 -11.78125 9.507812 -11.082031 10.3125 -9.6875 L 8.765625 -8.75 C 8.484375 -9.195312 8.148438 -9.539062 7.765625 -9.78125 C 7.390625 -10.03125 6.890625 -10.15625 6.265625 -10.15625 C 5.160156 -10.15625 4.375 -9.753906 3.90625 -8.953125 C 3.445312 -8.160156 3.21875 -7.0625 3.21875 -5.65625 C 3.21875 -4.582031 3.328125 -3.75 3.546875 -3.15625 C 3.765625 -2.5625 4.101562 -2.101562 4.5625 -1.78125 C 5.03125 -1.457031 5.625 -1.296875 6.34375 -1.296875 C 6.945312 -1.296875 7.441406 -1.410156 7.828125 -1.640625 C 8.210938 -1.867188 8.578125 -2.222656 8.921875 -2.703125 Z M 10.46875 -1.765625"/></g><g id="t"><path d="M 11.359375 -5.703125 C 11.359375 -3.710938 10.929688 -2.207031 10.078125 -1.1875 C 9.222656 -0.164062 7.976562 0.34375 6.34375 0.34375 C 4.695312 0.34375 3.441406 -0.160156 2.578125 -1.171875 C 1.710938 -2.179688 1.28125 -3.691406 1.28125 -5.703125 C 1.28125 -7.742188 1.710938 -9.265625 2.578125 -10.265625 C 3.453125 -11.273438 4.707031 -11.78125 6.34375 -11.78125 C 7.988281 -11.78125 9.234375 -11.269531 10.078125 -10.25 C 10.929688 -9.226562 11.359375 -7.710938 11.359375 -5.703125 Z M 9.421875 -5.703125 C 9.421875 -7.265625 9.160156 -8.394531 8.640625 -9.09375 C 8.128906 -9.800781 7.363281 -10.15625 6.34375 -10.15625 C 5.28125 -10.15625 4.492188 -9.800781 3.984375 -9.09375 C 3.472656 -8.382812 3.21875 -7.253906 3.21875 -5.703125 C 3.21875 -4.210938 3.460938 -3.101562 3.953125 -2.375 C 4.453125 -1.65625 5.25 -1.296875 6.34375 -1.296875 C 7.382812 -1.296875 8.15625 -1.648438 8.65625 -2.359375 C 9.164062 -3.078125 9.421875 -4.191406 9.421875 -5.703125 Z M 9.421875 -5.703125"/></g><g id="u"><path d="M 9.0625 0 L 9.0625 -6.75 C 9.0625 -7.84375 9.003906 -8.570312 8.890625 -8.9375 C 8.785156 -9.300781 8.609375 -9.5625 8.359375 -9.71875 C 8.109375 -9.882812 7.75 -9.96875 7.28125 -9.96875 C 6.800781 -9.96875 6.238281 -9.785156 5.59375 -9.421875 C 4.945312 -9.054688 4.328125 -8.613281 3.734375 -8.09375 L 3.734375 0 L 1.859375 0 L 1.859375 -11.453125 L 3.734375 -11.453125 L 3.734375 -9.75 C 4.265625 -10.28125 4.882812 -10.75 5.59375 -11.15625 C 6.300781 -11.570312 7.007812 -11.78125 7.71875 -11.78125 C 8.832031 -11.78125 9.644531 -11.460938 10.15625 -10.828125 C 10.675781 -10.203125 10.9375 -9.140625 10.9375 -7.640625 L 10.9375 0 Z M 9.0625 0"/></g><g id="v"><path d="M 3.21875 -5.5 C 3.21875 -3.988281 3.476562 -2.910156 4 -2.265625 C 4.519531 -1.617188 5.347656 -1.296875 6.484375 -1.296875 C 6.992188 -1.296875 7.441406 -1.398438 7.828125 -1.609375 C 8.210938 -1.828125 8.585938 -2.179688 8.953125 -2.671875 L 10.5 -1.703125 C 10.0625 -1.046875 9.53125 -0.539062 8.90625 -0.1875 C 8.28125 0.164062 7.429688 0.34375 6.359375 0.34375 C 4.648438 0.34375 3.375 -0.148438 2.53125 -1.140625 C 1.695312 -2.140625 1.28125 -3.640625 1.28125 -5.640625 C 1.28125 -7.734375 1.6875 -9.28125 2.5 -10.28125 C 3.320312 -11.28125 4.5625 -11.78125 6.21875 -11.78125 C 7.695312 -11.78125 8.804688 -11.351562 9.546875 -10.5 C 10.296875 -9.644531 10.671875 -8.332031 10.671875 -6.5625 L 10.671875 -5.5 Z M 8.84375 -6.984375 C 8.820312 -8.003906 8.601562 -8.796875 8.1875 -9.359375 C 7.769531 -9.929688 7.09375 -10.21875 6.15625 -10.21875 C 5.257812 -10.21875 4.585938 -9.960938 4.140625 -9.453125 C 3.691406 -8.941406 3.394531 -8.117188 3.25 -6.984375 Z M 8.84375 -6.984375"/></g><g id="w"><path d="M 7.578125 0 C 6.847656 0.226562 6.128906 0.34375 5.421875 0.34375 C 4.253906 0.34375 3.414062 0.0351562 2.90625 -0.578125 C 2.40625 -1.191406 2.15625 -2.15625 2.15625 -3.46875 L 2.15625 -9.890625 L 0.515625 -9.890625 L 0.515625 -11.453125 L 2.15625 -11.453125 L 2.15625 -14.65625 L 4.03125 -14.65625 L 4.03125 -11.453125 L 6.9375 -11.453125 L 6.9375 -9.890625 L 4.03125 -9.890625 L 4.03125 -3.828125 C 4.03125 -2.898438 4.125 -2.234375 4.3125 -1.828125 C 4.5 -1.429688 4.910156 -1.234375 5.546875 -1.234375 C 6.097656 -1.234375 6.613281 -1.335938 7.09375 -1.546875 Z M 7.578125 0"/></g><g id="x"><path d="M 4.03125 -14.359375 C 4.03125 -13.929688 3.929688 -13.632812 3.734375 -13.46875 C 3.535156 -13.3125 3.222656 -13.234375 2.796875 -13.234375 C 2.335938 -13.234375 2.019531 -13.332031 1.84375 -13.53125 C 1.664062 -13.726562 1.578125 -14.003906 1.578125 -14.359375 C 1.578125 -14.753906 1.671875 -15.039062 1.859375 -15.21875 C 2.054688 -15.394531 2.367188 -15.484375 2.796875 -15.484375 C 3.242188 -15.484375 3.5625 -15.394531 3.75 -15.21875 C 3.9375 -15.050781 4.03125 -14.765625 4.03125 -14.359375 Z M 1.859375 0 L 1.859375 -11.453125 L 3.734375 -11.453125 L 3.734375 0 Z M 1.859375 0"/></g><g id="y"><path d="M 6.421875 0 L 4.5625 0 L 0.5625 -11.453125 L 2.578125 -11.453125 L 5.546875 -2.453125 L 8.5 -11.453125 L 10.4375 -11.453125 Z M 6.421875 0"/></g><g id="z"><path d="M 9.078125 0 L 9.078125 -1.140625 C 8.648438 -0.722656 8.132812 -0.367188 7.53125 -0.078125 C 6.925781 0.203125 6.28125 0.34375 5.59375 0.34375 C 4.21875 0.34375 3.15625 -0.175781 2.40625 -1.21875 C 1.65625 -2.257812 1.28125 -3.734375 1.28125 -5.640625 C 1.28125 -7.503906 1.6875 -8.992188 2.5 -10.109375 C 3.3125 -11.222656 4.441406 -11.78125 5.890625 -11.78125 C 7.046875 -11.78125 8.109375 -11.359375 9.078125 -10.515625 L 9.078125 -16.265625 L 10.96875 -16.265625 L 10.96875 0 Z M 9.078125 -8.875 C 8.078125 -9.695312 7.09375 -10.109375 6.125 -10.109375 C 5.269531 -10.109375 4.570312 -9.75 4.03125 -9.03125 C 3.488281 -8.320312 3.21875 -7.207031 3.21875 -5.6875 C 3.21875 -2.789062 4.128906 -1.34375 5.953125 -1.34375 C 6.546875 -1.34375 7.113281 -1.488281 7.65625 -1.78125 C 8.207031 -2.082031 8.679688 -2.425781 9.078125 -2.8125 Z M 9.078125 -8.875"/></g><g id="A"><path d="M 8.375 0 L 8.375 -1.4375 C 7.789062 -0.925781 7.203125 -0.5 6.609375 -0.15625 C 6.015625 0.175781 5.347656 0.34375 4.609375 0.34375 C 3.515625 0.34375 2.671875 0.0078125 2.078125 -0.65625 C 1.484375 -1.320312 1.1875 -2.175781 1.1875 -3.21875 C 1.1875 -4.007812 1.34375 -4.664062 1.65625 -5.1875 C 1.96875 -5.707031 2.414062 -6.117188 3 -6.421875 C 3.582031 -6.722656 4.429688 -6.9375 5.546875 -7.0625 L 8.375 -7.3125 L 8.375 -7.875 C 8.375 -8.757812 8.125 -9.359375 7.625 -9.671875 C 7.132812 -9.992188 6.457031 -10.15625 5.59375 -10.15625 C 4.820312 -10.15625 4.222656 -10.019531 3.796875 -9.75 C 3.378906 -9.488281 3.082031 -9.195312 2.90625 -8.875 L 1.359375 -9.828125 C 1.710938 -10.453125 2.25 -10.929688 2.96875 -11.265625 C 3.6875 -11.609375 4.578125 -11.78125 5.640625 -11.78125 C 7.285156 -11.78125 8.460938 -11.484375 9.171875 -10.890625 C 9.890625 -10.296875 10.25 -9.265625 10.25 -7.796875 L 10.25 0 Z M 8.375 -5.8125 L 6.53125 -5.640625 C 5.289062 -5.523438 4.414062 -5.28125 3.90625 -4.90625 C 3.394531 -4.53125 3.140625 -3.984375 3.140625 -3.265625 C 3.140625 -2.578125 3.304688 -2.082031 3.640625 -1.78125 C 3.984375 -1.488281 4.5 -1.34375 5.1875 -1.34375 C 5.46875 -1.34375 5.75 -1.394531 6.03125 -1.5 C 6.3125 -1.601562 6.582031 -1.734375 6.84375 -1.890625 C 7.113281 -2.046875 7.375 -2.222656 7.625 -2.421875 C 7.882812 -2.628906 8.132812 -2.828125 8.375 -3.015625 Z M 8.375 -5.8125"/></g><g id="K"><path d="M 8.734375 0 L 8.734375 -1.5 C 8.117188 -0.957031 7.503906 -0.507812 6.890625 -0.15625 C 6.273438 0.1875 5.582031 0.359375 4.8125 0.359375 C 3.664062 0.359375 2.785156 0.0078125 2.171875 -0.6875 C 1.554688 -1.382812 1.25 -2.273438 1.25 -3.359375 C 1.25 -4.179688 1.410156 -4.863281 1.734375 -5.40625 C 2.054688 -5.945312 2.519531 -6.375 3.125 -6.6875 C 3.738281 -7.007812 4.628906 -7.238281 5.796875 -7.375 L 8.734375 -7.640625 L 8.734375 -8.21875 C 8.734375 -9.132812 8.472656 -9.757812 7.953125 -10.09375 C 7.441406 -10.425781 6.738281 -10.59375 5.84375 -10.59375 C 5.03125 -10.59375 4.40625 -10.453125 3.96875 -10.171875 C 3.53125 -9.890625 3.21875 -9.585938 3.03125 -9.265625 L 1.421875 -10.25 C 1.785156 -10.90625 2.34375 -11.410156 3.09375 -11.765625 C 3.84375 -12.117188 4.769531 -12.296875 5.875 -12.296875 C 7.59375 -12.296875 8.820312 -11.984375 9.5625 -11.359375 C 10.3125 -10.734375 10.6875 -9.65625 10.6875 -8.125 L 10.6875 0 Z M 8.734375 -6.0625 L 6.8125 -5.875 C 5.507812 -5.757812 4.59375 -5.503906 4.0625 -5.109375 C 3.53125 -4.722656 3.265625 -4.15625 3.265625 -3.40625 C 3.265625 -2.695312 3.441406 -2.1875 3.796875 -1.875 C 4.160156 -1.5625 4.703125 -1.40625 5.421875 -1.40625 C 5.710938 -1.40625 6 -1.457031 6.28125 -1.5625 C 6.570312 -1.675781 6.859375 -1.8125 7.140625 -1.96875 C 7.421875 -2.132812 7.691406 -2.320312 7.953125 -2.53125 C 8.222656 -2.738281 8.484375 -2.941406 8.734375 -3.140625 Z M 8.734375 -6.0625"/></g><g id="L"><path d="M 2.03125 0 L 2.03125 -16.96875 L 3.984375 -16.96875 L 3.984375 0 Z M 2.03125 0"/></g><g id="M"><path d="M 7.90625 0 C 7.144531 0.238281 6.394531 0.359375 5.65625 0.359375 C 4.4375 0.359375 3.5625 0.0390625 3.03125 -0.59375 C 2.507812 -1.238281 2.25 -2.242188 2.25 -3.609375 L 2.25 -10.3125 L 0.53125 -10.3125 L 0.53125 -11.953125 L 2.25 -11.953125 L 2.25 -15.28125 L 4.203125 -15.28125 L 4.203125 -11.953125 L 7.234375 -11.953125 L 7.234375 -10.3125 L 4.203125 -10.3125 L 4.203125 -3.984375 C 4.203125 -3.023438 4.296875 -2.332031 4.484375 -1.90625 C 4.679688 -1.488281 5.117188 -1.28125 5.796875 -1.28125 C 6.367188 -1.28125 6.898438 -1.390625 7.390625 -1.609375 Z M 7.90625 0"/></g><g id="N"><path d="M 11.859375 -5.953125 C 11.859375 -3.878906 11.410156 -2.304688 10.515625 -1.234375 C 9.617188 -0.171875 8.316406 0.359375 6.609375 0.359375 C 4.898438 0.359375 3.59375 -0.164062 2.6875 -1.21875 C 1.78125 -2.269531 1.328125 -3.847656 1.328125 -5.953125 C 1.328125 -8.085938 1.78125 -9.675781 2.6875 -10.71875 C 3.601562 -11.769531 4.910156 -12.296875 6.609375 -12.296875 C 8.328125 -12.296875 9.628906 -11.757812 10.515625 -10.6875 C 11.410156 -9.625 11.859375 -8.046875 11.859375 -5.953125 Z M 9.828125 -5.953125 C 9.828125 -7.578125 9.554688 -8.753906 9.015625 -9.484375 C 8.484375 -10.222656 7.679688 -10.59375 6.609375 -10.59375 C 5.503906 -10.59375 4.6875 -10.222656 4.15625 -9.484375 C 3.625 -8.742188 3.359375 -7.566406 3.359375 -5.953125 C 3.359375 -4.390625 3.613281 -3.234375 4.125 -2.484375 C 4.644531 -1.734375 5.472656 -1.359375 6.609375 -1.359375 C 7.691406 -1.359375 8.5 -1.726562 9.03125 -2.46875 C 9.5625 -3.21875 9.828125 -4.378906 9.828125 -5.953125 Z M 9.828125 -5.953125"/></g><g id="P"><path d="M 9.46875 0 L 9.46875 -1.1875 C 9.019531 -0.75 8.476562 -0.378906 7.84375 -0.078125 C 7.21875 0.210938 6.550781 0.359375 5.84375 0.359375 C 4.40625 0.359375 3.289062 -0.179688 2.5 -1.265625 C 1.71875 -2.347656 1.328125 -3.882812 1.328125 -5.875 C 1.328125 -7.832031 1.753906 -9.390625 2.609375 -10.546875 C 3.460938 -11.710938 4.640625 -12.296875 6.140625 -12.296875 C 7.347656 -12.296875 8.457031 -11.859375 9.46875 -10.984375 L 9.46875 -16.96875 L 11.4375 -16.96875 L 11.4375 0 Z M 9.46875 -9.265625 C 8.425781 -10.128906 7.398438 -10.5625 6.390625 -10.5625 C 5.503906 -10.5625 4.773438 -10.1875 4.203125 -9.4375 C 3.640625 -8.6875 3.359375 -7.515625 3.359375 -5.921875 C 3.359375 -2.910156 4.3125 -1.40625 6.21875 -1.40625 C 6.832031 -1.40625 7.421875 -1.5625 7.984375 -1.875 C 8.554688 -2.1875 9.050781 -2.539062 9.46875 -2.9375 Z M 9.46875 -9.265625"/></g><g id="Q"><path d="M 3.359375 -5.75 C 3.359375 -4.164062 3.628906 -3.035156 4.171875 -2.359375 C 4.710938 -1.691406 5.578125 -1.359375 6.765625 -1.359375 C 7.296875 -1.359375 7.765625 -1.46875 8.171875 -1.6875 C 8.578125 -1.914062 8.960938 -2.28125 9.328125 -2.78125 L 10.953125 -1.78125 C 10.492188 -1.09375 9.9375 -0.5625 9.28125 -0.1875 C 8.632812 0.175781 7.753906 0.359375 6.640625 0.359375 C 4.859375 0.359375 3.523438 -0.15625 2.640625 -1.1875 C 1.765625 -2.226562 1.328125 -3.789062 1.328125 -5.875 C 1.328125 -8.070312 1.753906 -9.691406 2.609375 -10.734375 C 3.460938 -11.773438 4.753906 -12.296875 6.484375 -12.296875 C 8.035156 -12.296875 9.195312 -11.847656 9.96875 -10.953125 C 10.75 -10.066406 11.140625 -8.695312 11.140625 -6.84375 L 11.140625 -5.75 Z M 9.21875 -7.28125 C 9.207031 -8.351562 8.984375 -9.1875 8.546875 -9.78125 C 8.109375 -10.375 7.398438 -10.671875 6.421875 -10.671875 C 5.484375 -10.671875 4.78125 -10.398438 4.3125 -9.859375 C 3.84375 -9.328125 3.535156 -8.46875 3.390625 -7.28125 Z M 9.21875 -7.28125"/></g><g id="R"><path d="M 10.109375 -3.21875 C 10.109375 -2.101562 9.710938 -1.226562 8.921875 -0.59375 C 8.128906 0.0390625 7.003906 0.359375 5.546875 0.359375 C 4.554688 0.359375 3.664062 0.171875 2.875 -0.203125 C 2.082031 -0.585938 1.503906 -1.117188 1.140625 -1.796875 L 2.71875 -2.765625 C 3.3125 -1.796875 4.273438 -1.3125 5.609375 -1.3125 C 6.472656 -1.3125 7.117188 -1.472656 7.546875 -1.796875 C 7.984375 -2.128906 8.203125 -2.578125 8.203125 -3.140625 C 8.203125 -3.472656 8.125 -3.742188 7.96875 -3.953125 C 7.8125 -4.171875 7.570312 -4.351562 7.25 -4.5 C 6.9375 -4.65625 6.285156 -4.867188 5.296875 -5.140625 C 3.878906 -5.460938 2.878906 -5.910156 2.296875 -6.484375 C 1.710938 -7.066406 1.421875 -7.835938 1.421875 -8.796875 C 1.421875 -9.859375 1.800781 -10.707031 2.5625 -11.34375 C 3.320312 -11.976562 4.375 -12.296875 5.71875 -12.296875 C 6.757812 -12.296875 7.632812 -12.085938 8.34375 -11.671875 C 9.050781 -11.265625 9.566406 -10.773438 9.890625 -10.203125 L 8.328125 -9.25 C 7.703125 -10.175781 6.816406 -10.640625 5.671875 -10.640625 C 5.023438 -10.640625 4.472656 -10.492188 4.015625 -10.203125 C 3.566406 -9.921875 3.34375 -9.476562 3.34375 -8.875 C 3.34375 -8.332031 3.539062 -7.9375 3.9375 -7.6875 C 4.332031 -7.445312 4.953125 -7.222656 5.796875 -7.015625 C 7.140625 -6.671875 8.070312 -6.34375 8.59375 -6.03125 C 9.113281 -5.726562 9.492188 -5.351562 9.734375 -4.90625 C 9.984375 -4.46875 10.109375 -3.90625 10.109375 -3.21875 Z M 10.109375 -3.21875"/></g><g id="S"><path d="M 15.703125 0 L 15.703125 -7.046875 C 15.703125 -8.234375 15.65625 -9.015625 15.5625 -9.390625 C 15.476562 -9.773438 15.320312 -10.039062 15.09375 -10.1875 C 14.863281 -10.332031 14.515625 -10.40625 14.046875 -10.40625 C 13.660156 -10.40625 13.21875 -10.265625 12.71875 -9.984375 C 12.226562 -9.703125 11.582031 -9.191406 10.78125 -8.453125 L 10.78125 0 L 8.828125 0 L 8.828125 -7.046875 C 8.828125 -8.171875 8.78125 -8.929688 8.6875 -9.328125 C 8.59375 -9.722656 8.4375 -10 8.21875 -10.15625 C 8 -10.320312 7.65625 -10.40625 7.1875 -10.40625 C 6.757812 -10.40625 6.257812 -10.234375 5.6875 -9.890625 C 5.125 -9.554688 4.523438 -9.078125 3.890625 -8.453125 L 3.890625 0 L 1.9375 0 L 1.9375 -11.953125 L 3.890625 -11.953125 L 3.890625 -10.171875 C 4.410156 -10.734375 4.988281 -11.226562 5.625 -11.65625 C 6.269531 -12.082031 6.957031 -12.296875 7.6875 -12.296875 C 8.488281 -12.296875 9.128906 -12.109375 9.609375 -11.734375 C 10.097656 -11.367188 10.421875 -10.78125 10.578125 -9.96875 C 11.203125 -10.625 11.835938 -11.175781 12.484375 -11.625 C 13.128906 -12.070312 13.847656 -12.296875 14.640625 -12.296875 C 15.367188 -12.296875 15.953125 -12.140625 16.390625 -11.828125 C 16.828125 -11.523438 17.148438 -11.082031 17.359375 -10.5 C 17.566406 -9.914062 17.671875 -9.078125 17.671875 -7.984375 L 17.671875 0 Z M 15.703125 0"/></g><g id="T"><path d="M 12.046875 -6.0625 C 12.046875 -4.101562 11.617188 -2.539062 10.765625 -1.375 C 9.910156 -0.21875 8.734375 0.359375 7.234375 0.359375 C 6.046875 0.359375 4.929688 -0.0859375 3.890625 -0.984375 L 3.890625 4.5 L 1.9375 4.5 L 1.9375 -11.953125 L 3.890625 -11.953125 L 3.890625 -10.765625 C 4.347656 -11.191406 4.890625 -11.550781 5.515625 -11.84375 C 6.148438 -12.144531 6.828125 -12.296875 7.546875 -12.296875 C 8.960938 -12.296875 10.066406 -11.757812 10.859375 -10.6875 C 11.648438 -9.613281 12.046875 -8.070312 12.046875 -6.0625 Z M 10.015625 -6.015625 C 10.015625 -9.046875 9.066406 -10.5625 7.171875 -10.5625 C 6.546875 -10.5625 5.945312 -10.40625 5.375 -10.09375 C 4.8125 -9.78125 4.316406 -9.421875 3.890625 -9.015625 L 3.890625 -2.6875 C 4.910156 -1.832031 5.9375 -1.40625 6.96875 -1.40625 C 7.863281 -1.40625 8.59375 -1.773438 9.15625 -2.515625 C 9.726562 -3.265625 10.015625 -4.429688 10.015625 -6.015625 Z M 10.015625 -6.015625"/></g><g id="U"><path d="M 9.453125 0 L 9.453125 -7.046875 C 9.453125 -8.179688 9.394531 -8.9375 9.28125 -9.3125 C 9.164062 -9.695312 8.976562 -9.972656 8.71875 -10.140625 C 8.457031 -10.316406 8.082031 -10.40625 7.59375 -10.40625 C 7.09375 -10.40625 6.503906 -10.210938 5.828125 -9.828125 C 5.160156 -9.453125 4.515625 -8.992188 3.890625 -8.453125 L 3.890625 0 L 1.9375 0 L 1.9375 -11.953125 L 3.890625 -11.953125 L 3.890625 -10.171875 C 4.453125 -10.734375 5.097656 -11.226562 5.828125 -11.65625 C 6.566406 -12.082031 7.3125 -12.296875 8.0625 -12.296875 C 9.21875 -12.296875 10.0625 -11.96875 10.59375 -11.3125 C 11.132812 -10.65625 11.40625 -9.546875 11.40625 -7.984375 L 11.40625 0 Z M 9.453125 0"/></g><g id="V"><path d="M 9.453125 0 L 9.453125 -7.046875 C 9.453125 -8.179688 9.394531 -8.9375 9.28125 -9.3125 C 9.175781 -9.6875 8.992188 -9.960938 8.734375 -10.140625 C 8.472656 -10.316406 8.09375 -10.40625 7.59375 -10.40625 C 7.09375 -10.40625 6.503906 -10.210938 5.828125 -9.828125 C 5.160156 -9.453125 4.515625 -8.992188 3.890625 -8.453125 L 3.890625 0 L 1.9375 0 L 1.9375 -16.96875 L 3.890625 -16.96875 L 3.890625 -10.171875 C 4.453125 -10.734375 5.097656 -11.226562 5.828125 -11.65625 C 6.566406 -12.082031 7.3125 -12.296875 8.0625 -12.296875 C 9.21875 -12.296875 10.0625 -11.96875 10.59375 -11.3125 C 11.132812 -10.65625 11.40625 -9.546875 11.40625 -7.984375 L 11.40625 0 Z M 9.453125 0"/></g><g id="ab"><path d="M 12.046875 -6.0625 C 12.046875 -4.050781 11.632812 -2.476562 10.8125 -1.34375 C 9.988281 -0.207031 8.835938 0.359375 7.359375 0.359375 C 6.710938 0.359375 6.085938 0.226562 5.484375 -0.03125 C 4.878906 -0.289062 4.347656 -0.609375 3.890625 -0.984375 L 3.890625 0 L 1.9375 0 L 1.9375 -16.96875 L 3.890625 -16.96875 L 3.890625 -10.765625 C 4.347656 -11.191406 4.890625 -11.550781 5.515625 -11.84375 C 6.148438 -12.144531 6.828125 -12.296875 7.546875 -12.296875 C 9.015625 -12.296875 10.128906 -11.753906 10.890625 -10.671875 C 11.660156 -9.597656 12.046875 -8.0625 12.046875 -6.0625 Z M 10.015625 -6.015625 C 10.015625 -7.609375 9.769531 -8.765625 9.28125 -9.484375 C 8.800781 -10.203125 8.097656 -10.5625 7.171875 -10.5625 C 6.554688 -10.5625 5.960938 -10.40625 5.390625 -10.09375 C 4.828125 -9.78125 4.328125 -9.421875 3.890625 -9.015625 L 3.890625 -2.6875 C 4.328125 -2.320312 4.828125 -2.015625 5.390625 -1.765625 C 5.960938 -1.523438 6.523438 -1.40625 7.078125 -1.40625 C 7.960938 -1.40625 8.671875 -1.773438 9.203125 -2.515625 C 9.742188 -3.265625 10.015625 -4.429688 10.015625 -6.015625 Z M 10.015625 -6.015625"/></g><g id="ac"><path d="M 4.203125 -14.984375 C 4.203125 -14.535156 4.097656 -14.226562 3.890625 -14.0625 C 3.691406 -13.894531 3.367188 -13.8125 2.921875 -13.8125 C 2.441406 -13.8125 2.109375 -13.914062 1.921875 -14.125 C 1.742188 -14.332031 1.65625 -14.617188 1.65625 -14.984375 C 1.65625 -15.390625 1.753906 -15.6875 1.953125 -15.875 C 2.148438 -16.0625 2.472656 -16.15625 2.921875 -16.15625 C 3.378906 -16.15625 3.707031 -16.0625 3.90625 -15.875 C 4.101562 -15.695312 4.203125 -15.398438 4.203125 -14.984375 Z M 1.9375 0 L 1.9375 -11.953125 L 3.890625 -11.953125 L 3.890625 0 Z M 1.9375 0"/></g><g id="ad"><path d="M 8.453125 0 L 5.703125 -4.546875 L 2.84375 0 L 0.625 0 L 4.59375 -5.90625 L 0.671875 -11.953125 L 3.078125 -11.953125 L 5.84375 -7.421875 L 8.65625 -11.953125 L 10.890625 -11.953125 L 6.9375 -6.046875 L 10.890625 0 Z M 8.453125 0"/></g><g id="W"><path d="M 16.34375 0 L 16.34375 -7.328125 C 16.34375 -8.554688 16.289062 -9.367188 16.1875 -9.765625 C 16.09375 -10.160156 15.925781 -10.4375 15.6875 -10.59375 C 15.457031 -10.75 15.101562 -10.828125 14.625 -10.828125 C 14.207031 -10.828125 13.738281 -10.679688 13.21875 -10.390625 C 12.707031 -10.097656 12.039062 -9.5625 11.21875 -8.78125 L 11.21875 0 L 9.171875 0 L 9.171875 -7.328125 C 9.171875 -8.492188 9.125 -9.28125 9.03125 -9.6875 C 8.9375 -10.101562 8.773438 -10.394531 8.546875 -10.5625 C 8.316406 -10.738281 7.960938 -10.828125 7.484375 -10.828125 C 7.035156 -10.828125 6.515625 -10.648438 5.921875 -10.296875 C 5.328125 -9.941406 4.707031 -9.4375 4.0625 -8.78125 L 4.0625 0 L 2.015625 0 L 2.015625 -12.4375 L 4.0625 -12.4375 L 4.0625 -10.59375 C 4.59375 -11.175781 5.191406 -11.6875 5.859375 -12.125 C 6.523438 -12.570312 7.234375 -12.796875 7.984375 -12.796875 C 8.828125 -12.796875 9.5 -12.597656 10 -12.203125 C 10.5 -11.816406 10.832031 -11.203125 11 -10.359375 C 11.644531 -11.046875 12.300781 -11.625 12.96875 -12.09375 C 13.644531 -12.5625 14.394531 -12.796875 15.21875 -12.796875 C 15.976562 -12.796875 16.585938 -12.632812 17.046875 -12.3125 C 17.503906 -11.988281 17.835938 -11.523438 18.046875 -10.921875 C 18.265625 -10.316406 18.375 -9.441406 18.375 -8.296875 L 18.375 0 Z M 16.34375 0"/></g><g id="X"><path d="M 3.5 -5.96875 C 3.5 -4.332031 3.78125 -3.160156 4.34375 -2.453125 C 4.90625 -1.753906 5.804688 -1.40625 7.046875 -1.40625 C 7.597656 -1.40625 8.082031 -1.519531 8.5 -1.75 C 8.914062 -1.988281 9.316406 -2.367188 9.703125 -2.890625 L 11.390625 -1.84375 C 10.921875 -1.132812 10.34375 -0.585938 9.65625 -0.203125 C 8.976562 0.179688 8.0625 0.375 6.90625 0.375 C 5.050781 0.375 3.664062 -0.160156 2.75 -1.234375 C 1.84375 -2.316406 1.390625 -3.945312 1.390625 -6.125 C 1.390625 -8.394531 1.832031 -10.070312 2.71875 -11.15625 C 3.613281 -12.25 4.957031 -12.796875 6.75 -12.796875 C 8.363281 -12.796875 9.570312 -12.328125 10.375 -11.390625 C 11.175781 -10.460938 11.578125 -9.035156 11.578125 -7.109375 L 11.578125 -5.96875 Z M 9.59375 -7.578125 C 9.570312 -8.691406 9.332031 -9.554688 8.875 -10.171875 C 8.425781 -10.785156 7.691406 -11.09375 6.671875 -11.09375 C 5.703125 -11.09375 4.972656 -10.8125 4.484375 -10.25 C 4.003906 -9.695312 3.679688 -8.804688 3.515625 -7.578125 Z M 7.390625 -14.328125 L 5.703125 -14.328125 L 7.8125 -18.609375 L 10.609375 -18.609375 Z M 7.390625 -14.328125"/></g><g id="Y"><path d="M 9.859375 0 L 9.859375 -1.234375 C 9.390625 -0.785156 8.828125 -0.40625 8.171875 -0.09375 C 7.515625 0.21875 6.816406 0.375 6.078125 0.375 C 4.578125 0.375 3.421875 -0.1875 2.609375 -1.3125 C 1.796875 -2.445312 1.390625 -4.050781 1.390625 -6.125 C 1.390625 -8.15625 1.832031 -9.773438 2.71875 -10.984375 C 3.601562 -12.191406 4.828125 -12.796875 6.390625 -12.796875 C 7.648438 -12.796875 8.804688 -12.335938 9.859375 -11.421875 L 9.859375 -17.65625 L 11.90625 -17.65625 L 11.90625 0 Z M 9.859375 -9.640625 C 8.773438 -10.535156 7.707031 -10.984375 6.65625 -10.984375 C 5.726562 -10.984375 4.96875 -10.59375 4.375 -9.8125 C 3.789062 -9.03125 3.5 -7.816406 3.5 -6.171875 C 3.5 -3.023438 4.488281 -1.453125 6.46875 -1.453125 C 7.113281 -1.453125 7.726562 -1.613281 8.3125 -1.9375 C 8.90625 -2.269531 9.421875 -2.644531 9.859375 -3.0625 Z M 9.859375 -9.640625"/></g><g id="Z"><path d="M 4.375 -15.59375 C 4.375 -15.113281 4.265625 -14.789062 4.046875 -14.625 C 3.835938 -14.457031 3.5 -14.375 3.03125 -14.375 C 2.53125 -14.375 2.1875 -14.476562 2 -14.6875 C 1.8125 -14.90625 1.71875 -15.207031 1.71875 -15.59375 C 1.71875 -16.007812 1.816406 -16.3125 2.015625 -16.5 C 2.222656 -16.695312 2.5625 -16.796875 3.03125 -16.796875 C 3.519531 -16.796875 3.863281 -16.703125 4.0625 -16.515625 C 4.269531 -16.335938 4.375 -16.03125 4.375 -15.59375 Z M 2.015625 0 L 2.015625 -12.4375 L 4.0625 -12.4375 L 4.0625 0 Z M 2.015625 0"/></g><g id="aa"><path d="M 12.328125 -6.1875 C 12.328125 -4.03125 11.863281 -2.394531 10.9375 -1.28125 C 10.007812 -0.175781 8.65625 0.375 6.875 0.375 C 5.09375 0.375 3.734375 -0.171875 2.796875 -1.265625 C 1.859375 -2.367188 1.390625 -4.007812 1.390625 -6.1875 C 1.390625 -8.40625 1.859375 -10.0625 2.796875 -11.15625 C 3.742188 -12.25 5.101562 -12.796875 6.875 -12.796875 C 8.664062 -12.796875 10.019531 -12.238281 10.9375 -11.125 C 11.863281 -10.019531 12.328125 -8.375 12.328125 -6.1875 Z M 10.21875 -6.1875 C 10.21875 -7.875 9.9375 -9.101562 9.375 -9.875 C 8.820312 -10.644531 7.988281 -11.03125 6.875 -11.03125 C 5.726562 -11.03125 4.878906 -10.644531 4.328125 -9.875 C 3.773438 -9.101562 3.5 -7.875 3.5 -6.1875 C 3.5 -4.570312 3.765625 -3.367188 4.296875 -2.578125 C 4.828125 -1.796875 5.6875 -1.40625 6.875 -1.40625 C 8.007812 -1.40625 8.847656 -1.789062 9.390625 -2.5625 C 9.941406 -3.34375 10.21875 -4.550781 10.21875 -6.1875 Z M 10.21875 -6.1875"/></g><clipPath id="B"><path d="M 574.570312 106.203125 L 839.398438 106.203125 L 839.398438 335.300781 L 574.570312 335.300781 Z M 574.570312 106.203125"/></clipPath><clipPath id="C"><path d="M 574.570312 106.203125 L 839.398438 106.203125 L 839.398438 183 L 574.570312 183 Z M 574.570312 106.203125"/></clipPath><clipPath id="F"><path d="M 0.480469 0.398438 L 177.359375 0.398438 L 177.359375 78 L 0.480469 78 Z M 0.480469 0.398438"/></clipPath><clipPath id="E"><path d="M0 0H178V79H0z"/></clipPath><clipPath id="G"><path d="M 663 259 L 752 259 L 752 335.300781 L 663 335.300781 Z M 663 259"/></clipPath><clipPath id="J"><path d="M 0.121094 0.199219 L 88 0.199219 L 88 76.300781 L 0.121094 76.300781 Z M 0.121094 0.199219"/></clipPath><clipPath id="I"><path d="M0 0H89V77H0z"/></clipPath><mask id="D"><g filter="url(#a)"><path fill-opacity=".6" d="M-144 -81H1584V891H-144z"/></g></mask><mask id="H"><g filter="url(#a)"><path fill-opacity=".2" d="M-144 -81H1584V891H-144z"/></g></mask><filter x="0%" y="0%" width="100%" xmlns:xlink="http://www.w3.org/1999/xlink" xlink:type="simple" xlink:actuate="onLoad" height="100%" id="a" xlink:show="other"><feColorMatrix values="0 0 0 0 1 0 0 0 0 1 0 0 0 0 1 0 0 0 1 0" color-interpolation-filters="sRGB"/></filter></defs><path fill="#EFF4F3" d="M 610.507812 340.289062 L 473.71875 340.289062 C 468.898438 340.289062 464.972656 336.367188 464.972656 331.554688 L 464.972656 275.429688 C 464.972656 270.617188 468.898438 266.695312 473.71875 266.695312 L 610.507812 266.695312 C 615.328125 266.695312 619.257812 270.617188 619.257812 275.429688 L 619.257812 331.554688 C 619.257812 336.367188 615.328125 340.289062 610.507812 340.289062 Z M 610.507812 340.289062"/><g><use x="498.608" y="296.72" xmlns:xlink="http://www.w3.org/1999/xlink" xlink:href="#b" xlink:type="simple" xlink:actuate="onLoad" xlink:show="embed"/></g><g><use x="510.941" y="296.72" xmlns:xlink="http://www.w3.org/1999/xlink" xlink:href="#c" xlink:type="simple" xlink:actuate="onLoad" xlink:show="embed"/></g><g><use x="516.32" y="296.72" xmlns:xlink="http://www.w3.org/1999/xlink" xlink:href="#d" xlink:type="simple" xlink:actuate="onLoad" xlink:show="embed"/></g><g><use x="528.538" y="296.72" xmlns:xlink="http://www.w3.org/1999/xlink" xlink:href="#e" xlink:type="simple" xlink:actuate="onLoad" xlink:show="embed"/></g><g><use x="540.095" y="296.72" xmlns:xlink="http://www.w3.org/1999/xlink" xlink:href="#f" xlink:type="simple" xlink:actuate="onLoad" xlink:show="embed"/></g><g><use x="558.081" y="296.72" xmlns:xlink="http://www.w3.org/1999/xlink" xlink:href="#c" xlink:type="simple" xlink:actuate="onLoad" xlink:show="embed"/></g><g><use x="563.459" y="296.72" xmlns:xlink="http://www.w3.org/1999/xlink" xlink:href="#g" xlink:type="simple" xlink:actuate="onLoad" xlink:show="embed"/></g><g><use x="574.28" y="296.72" xmlns:xlink="http://www.w3.org/1999/xlink" xlink:href="#h" xlink:type="simple" xlink:actuate="onLoad" xlink:show="embed"/></g><g><use x="490.306" y="326.416" xmlns:xlink="http://www.w3.org/1999/xlink" xlink:href="#g" xlink:type="simple" xlink:actuate="onLoad" xlink:show="embed"/></g><g><use x="501.127" y="326.416" xmlns:xlink="http://www.w3.org/1999/xlink" xlink:href="#c" xlink:type="simple" xlink:actuate="onLoad" xlink:show="embed"/></g><g><use x="506.506" y="326.416" xmlns:xlink="http://www.w3.org/1999/xlink" xlink:href="#g" xlink:type="simple" xlink:actuate="onLoad" xlink:show="embed"/></g><g><use x="517.327" y="326.416" xmlns:xlink="http://www.w3.org/1999/xlink" xlink:href="#i" xlink:type="simple" xlink:actuate="onLoad" xlink:show="embed"/></g><g><use x="522.874" y="326.416" xmlns:xlink="http://www.w3.org/1999/xlink" xlink:href="#j" xlink:type="simple" xlink:actuate="onLoad" xlink:show="embed"/></g><g><use x="535.029" y="326.416" xmlns:xlink="http://www.w3.org/1999/xlink" xlink:href="#k" xlink:type="simple" xlink:actuate="onLoad" xlink:show="embed"/></g><g><use x="540.838" y="326.416" xmlns:xlink="http://www.w3.org/1999/xlink" xlink:href="#i" xlink:type="simple" xlink:actuate="onLoad" xlink:show="embed"/></g><g><use x="546.386" y="326.416" xmlns:xlink="http://www.w3.org/1999/xlink" xlink:href="#c" xlink:type="simple" xlink:actuate="onLoad" xlink:show="embed"/></g><g><use x="551.764" y="326.416" xmlns:xlink="http://www.w3.org/1999/xlink" xlink:href="#f" xlink:type="simple" xlink:actuate="onLoad" xlink:show="embed"/></g><g><use x="569.75" y="326.416" xmlns:xlink="http://www.w3.org/1999/xlink" xlink:href="#c" xlink:type="simple" xlink:actuate="onLoad" xlink:show="embed"/></g><g><use x="575.129" y="326.416" xmlns:xlink="http://www.w3.org/1999/xlink" xlink:href="#l" xlink:type="simple" xlink:actuate="onLoad" xlink:show="embed"/></g><g><use x="582.788" y="326.416" xmlns:xlink="http://www.w3.org/1999/xlink" xlink:href="#m" xlink:type="simple" xlink:actuate="onLoad" xlink:show="embed"/></g><path d="M 1013.292969 483.714844 L 1013.292969 476.738281 L 1030.445312 476.738281 L 1030.445312 474.800781 L 1013.292969 474.800781 L 1013.292969 457.558594 L 1011.355469 457.558594 L 1011.355469 474.800781 L 411.378906 474.800781 L 411.378906 457.558594 L 409.441406 457.558594 L 409.441406 474.800781 L 392.195312 474.800781 L 392.195312 476.738281 L 409.441406 476.738281 L 409.441406 709.878906 L 392.195312 709.878906 L 392.195312 711.816406 L 409.441406 711.816406 L 409.441406 729.058594 L 411.378906 729.058594 L 411.378906 711.816406 L 1011.355469 711.816406 L 1011.355469 729.058594 L 1013.292969 729.058594 L 1013.292969 711.816406 L 1030.445312 711.816406 L 1030.445312 709.878906 L 1013.292969 709.878906 Z M 1011.355469 483.714844 L 1011.355469 709.878906 L 411.378906 709.878906 L 411.378906 476.738281 L 1011.355469 476.738281 Z M 1011.355469 483.714844"/><path fill="#EFF4F3" d="M 840.898438 519.941406 L 981.628906 519.941406 L 981.628906 600.636719 L 840.898438 600.636719 Z M 840.898438 519.941406"/><g><use x="875.868" y="553.916" xmlns:xlink="http://www.w3.org/1999/xlink" xlink:href="#j" xlink:type="simple" xlink:actuate="onLoad" xlink:show="embed"/></g><g><use x="888.023" y="553.916" xmlns:xlink="http://www.w3.org/1999/xlink" xlink:href="#k" xlink:type="simple" xlink:actuate="onLoad" xlink:show="embed"/></g><g><use x="893.833" y="553.916" xmlns:xlink="http://www.w3.org/1999/xlink" xlink:href="#j" xlink:type="simple" xlink:actuate="onLoad" xlink:show="embed"/></g><g><use x="905.988" y="553.916" xmlns:xlink="http://www.w3.org/1999/xlink" xlink:href="#n" xlink:type="simple" xlink:actuate="onLoad" xlink:show="embed"/></g><g><use x="918.206" y="553.916" xmlns:xlink="http://www.w3.org/1999/xlink" xlink:href="#l" xlink:type="simple" xlink:actuate="onLoad" xlink:show="embed"/></g><g><use x="925.865" y="553.916" xmlns:xlink="http://www.w3.org/1999/xlink" xlink:href="#o" xlink:type="simple" xlink:actuate="onLoad" xlink:show="embed"/></g><g><use x="934.385" y="553.916" xmlns:xlink="http://www.w3.org/1999/xlink" xlink:href="#j" xlink:type="simple" xlink:actuate="onLoad" xlink:show="embed"/></g><g><use x="864.702" y="583.613" xmlns:xlink="http://www.w3.org/1999/xlink" xlink:href="#p" xlink:type="simple" xlink:actuate="onLoad" xlink:show="embed"/></g><g><use x="875.113" y="583.613" xmlns:xlink="http://www.w3.org/1999/xlink" xlink:href="#c" xlink:type="simple" xlink:actuate="onLoad" xlink:show="embed"/></g><g><use x="880.492" y="583.613" xmlns:xlink="http://www.w3.org/1999/xlink" xlink:href="#k" xlink:type="simple" xlink:actuate="onLoad" xlink:show="embed"/></g><g><use x="886.301" y="583.613" xmlns:xlink="http://www.w3.org/1999/xlink" xlink:href="#q" xlink:type="simple" xlink:actuate="onLoad" xlink:show="embed"/></g><g><use x="898.635" y="583.613" xmlns:xlink="http://www.w3.org/1999/xlink" xlink:href="#o" xlink:type="simple" xlink:actuate="onLoad" xlink:show="embed"/></g><g><use x="907.155" y="583.613" xmlns:xlink="http://www.w3.org/1999/xlink" xlink:href="#r" xlink:type="simple" xlink:actuate="onLoad" xlink:show="embed"/></g><g><use x="919.31" y="583.613" xmlns:xlink="http://www.w3.org/1999/xlink" xlink:href="#q" xlink:type="simple" xlink:actuate="onLoad" xlink:show="embed"/></g><g><use x="931.644" y="583.613" xmlns:xlink="http://www.w3.org/1999/xlink" xlink:href="#o" xlink:type="simple" xlink:actuate="onLoad" xlink:show="embed"/></g><g><use x="940.164" y="583.613" xmlns:xlink="http://www.w3.org/1999/xlink" xlink:href="#c" xlink:type="simple" xlink:actuate="onLoad" xlink:show="embed"/></g><g><use x="945.543" y="583.613" xmlns:xlink="http://www.w3.org/1999/xlink" xlink:href="#j" xlink:type="simple" xlink:actuate="onLoad" xlink:show="embed"/></g><path stroke-linecap="round" transform="matrix(.0419 -1.47633 1.4994 .04255 910.71 644.73)" fill="none" d="M 0.499196 -0.00015894 L 8.683049 0.000423735" stroke="#000"/><path stroke-linecap="round" transform="matrix(.0419 -1.47633 1.4994 .04255 911.2 627.482)" stroke-linejoin="round" d="M -2.50014 -1.501089 L -0.498866 0.000909681 L -2.500953 1.500142 Z M -2.50014 -1.501089" stroke="#000"/><path fill="#EFF4F3" d="M 909.996094 645.503906 C 866.710938 645.503906 831.621094 658.429688 831.621094 674.378906 C 831.621094 690.324219 866.710938 703.253906 909.996094 703.253906 C 953.28125 703.253906 988.371094 690.324219 988.371094 674.378906 C 988.371094 658.429688 953.28125 645.503906 909.996094 645.503906 Z M 909.996094 645.503906"/><g><use x="839.086" y="681.875" xmlns:xlink="http://www.w3.org/1999/xlink" xlink:href="#s" xlink:type="simple" xlink:actuate="onLoad" xlink:show="embed"/></g><g><use x="850.338" y="681.875" xmlns:xlink="http://www.w3.org/1999/xlink" xlink:href="#t" xlink:type="simple" xlink:actuate="onLoad" xlink:show="embed"/></g><g><use x="862.977" y="681.875" xmlns:xlink="http://www.w3.org/1999/xlink" xlink:href="#u" xlink:type="simple" xlink:actuate="onLoad" xlink:show="embed"/></g><g><use x="875.682" y="681.875" xmlns:xlink="http://www.w3.org/1999/xlink" xlink:href="#v" xlink:type="simple" xlink:actuate="onLoad" xlink:show="embed"/></g><g><use x="887.491" y="681.875" xmlns:xlink="http://www.w3.org/1999/xlink" xlink:href="#s" xlink:type="simple" xlink:actuate="onLoad" xlink:show="embed"/></g><g><use x="898.744" y="681.875" xmlns:xlink="http://www.w3.org/1999/xlink" xlink:href="#w" xlink:type="simple" xlink:actuate="onLoad" xlink:show="embed"/></g><g><use x="906.707" y="681.875" xmlns:xlink="http://www.w3.org/1999/xlink" xlink:href="#x" xlink:type="simple" xlink:actuate="onLoad" xlink:show="embed"/></g><g><use x="912.301" y="681.875" xmlns:xlink="http://www.w3.org/1999/xlink" xlink:href="#y" xlink:type="simple" xlink:actuate="onLoad" xlink:show="embed"/></g><g><use x="923.313" y="681.875" xmlns:xlink="http://www.w3.org/1999/xlink" xlink:href="#x" xlink:type="simple" xlink:actuate="onLoad" xlink:show="embed"/></g><g><use x="928.906" y="681.875" xmlns:xlink="http://www.w3.org/1999/xlink" xlink:href="#z" xlink:type="simple" xlink:actuate="onLoad" xlink:show="embed"/></g><g><use x="941.731" y="681.875" xmlns:xlink="http://www.w3.org/1999/xlink" xlink:href="#A" xlink:type="simple" xlink:actuate="onLoad" xlink:show="embed"/></g><g><use x="953.748" y="681.875" xmlns:xlink="http://www.w3.org/1999/xlink" xlink:href="#z" xlink:type="simple" xlink:actuate="onLoad" xlink:show="embed"/></g><g><use x="966.573" y="681.875" xmlns:xlink="http://www.w3.org/1999/xlink" xlink:href="#v" xlink:type="simple" xlink:actuate="onLoad" xlink:show="embed"/></g><g clip-path="url(#B)"><path fill="#FFF" d="M 618.90625 182.882812 L 663.21875 259.5625 L 706.984375 335.300781 L 750.75 259.5625 L 839.367188 106.203125 L 574.597656 106.203125 Z M 618.90625 182.882812"/></g><g clip-path="url(#C)"><path fill="#D2D3D4" d="M 839.367188 106.203125 L 574.597656 106.203125 L 618.90625 182.882812 L 795.058594 182.882812 Z M 839.367188 106.203125"/></g><g mask="url(#D)"><g><g clip-path="url(#E)" transform="translate(618 182)"><g clip-path="url(#F)"><path fill="#D2D3D4" d="M 132.75 77.5625 L 177.058594 0.882812 L 0.90625 0.882812 L 45.21875 77.5625 Z M 132.75 77.5625"/></g></g></g></g><g clip-path="url(#G)"><g mask="url(#H)"><g><g clip-path="url(#I)" transform="translate(663 259)"><g clip-path="url(#J)"><path fill="#D2D3D4" d="M 43.984375 76.300781 L 87.75 0.5625 L 0.21875 0.5625 Z M 43.984375 76.300781"/></g></g></g></g></g><g><use x="616.808" y="149.467" xmlns:xlink="http://www.w3.org/1999/xlink" xlink:href="#K" xlink:type="simple" xlink:actuate="onLoad" xlink:show="embed"/></g><g><use x="629.35" y="149.467" xmlns:xlink="http://www.w3.org/1999/xlink" xlink:href="#L" xlink:type="simple" xlink:actuate="onLoad" xlink:show="embed"/></g><g><use x="635.37" y="149.467" xmlns:xlink="http://www.w3.org/1999/xlink" xlink:href="#M" xlink:type="simple" xlink:actuate="onLoad" xlink:show="embed"/></g><g><use x="643.681" y="149.467" xmlns:xlink="http://www.w3.org/1999/xlink" xlink:href="#N" xlink:type="simple" xlink:actuate="onLoad" xlink:show="embed"/></g><g><use x="656.872" y="149.467" xmlns:xlink="http://www.w3.org/1999/xlink" xlink:href="#O" xlink:type="simple" xlink:actuate="onLoad" xlink:show="embed"/></g><g><use x="663.177" y="149.467" xmlns:xlink="http://www.w3.org/1999/xlink" xlink:href="#P" xlink:type="simple" xlink:actuate="onLoad" xlink:show="embed"/></g><g><use x="676.562" y="149.467" xmlns:xlink="http://www.w3.org/1999/xlink" xlink:href="#Q" xlink:type="simple" xlink:actuate="onLoad" xlink:show="embed"/></g><g><use x="688.887" y="149.467" xmlns:xlink="http://www.w3.org/1999/xlink" xlink:href="#R" xlink:type="simple" xlink:actuate="onLoad" xlink:show="embed"/></g><g><use x="700.186" y="149.467" xmlns:xlink="http://www.w3.org/1999/xlink" xlink:href="#Q" xlink:type="simple" xlink:actuate="onLoad" xlink:show="embed"/></g><g><use x="712.51" y="149.467" xmlns:xlink="http://www.w3.org/1999/xlink" xlink:href="#S" xlink:type="simple" xlink:actuate="onLoad" xlink:show="embed"/></g><g><use x="732.029" y="149.467" xmlns:xlink="http://www.w3.org/1999/xlink" xlink:href="#T" xlink:type="simple" xlink:actuate="onLoad" xlink:show="embed"/></g><g><use x="745.414" y="149.467" xmlns:xlink="http://www.w3.org/1999/xlink" xlink:href="#Q" xlink:type="simple" xlink:actuate="onLoad" xlink:show="embed"/></g><g><use x="757.739" y="149.467" xmlns:xlink="http://www.w3.org/1999/xlink" xlink:href="#U" xlink:type="simple" xlink:actuate="onLoad" xlink:show="embed"/></g><g><use x="770.999" y="149.467" xmlns:xlink="http://www.w3.org/1999/xlink" xlink:href="#V" xlink:type="simple" xlink:actuate="onLoad" xlink:show="embed"/></g><g><use x="784.258" y="149.467" xmlns:xlink="http://www.w3.org/1999/xlink" xlink:href="#N" xlink:type="simple" xlink:actuate="onLoad" xlink:show="embed"/></g><g><use x="673.176" y="218.287" xmlns:xlink="http://www.w3.org/1999/xlink" xlink:href="#W" xlink:type="simple" xlink:actuate="onLoad" xlink:show="embed"/></g><g><use x="693.473" y="218.287" xmlns:xlink="http://www.w3.org/1999/xlink" xlink:href="#X" xlink:type="simple" xlink:actuate="onLoad" xlink:show="embed"/></g><g><use x="706.289" y="218.287" xmlns:xlink="http://www.w3.org/1999/xlink" xlink:href="#Y" xlink:type="simple" xlink:actuate="onLoad" xlink:show="embed"/></g><g><use x="720.207" y="218.287" xmlns:xlink="http://www.w3.org/1999/xlink" xlink:href="#Z" xlink:type="simple" xlink:actuate="onLoad" xlink:show="embed"/></g><g><use x="726.277" y="218.287" xmlns:xlink="http://www.w3.org/1999/xlink" xlink:href="#aa" xlink:type="simple" xlink:actuate="onLoad" xlink:show="embed"/></g><g><use x="678.343" y="280.63" xmlns:xlink="http://www.w3.org/1999/xlink" xlink:href="#ab" xlink:type="simple" xlink:actuate="onLoad" xlink:show="embed"/></g><g><use x="691.728" y="280.63" xmlns:xlink="http://www.w3.org/1999/xlink" xlink:href="#K" xlink:type="simple" xlink:actuate="onLoad" xlink:show="embed"/></g><g><use x="704.269" y="280.63" xmlns:xlink="http://www.w3.org/1999/xlink" xlink:href="#ac" xlink:type="simple" xlink:actuate="onLoad" xlink:show="embed"/></g><g><use x="710.107" y="280.63" xmlns:xlink="http://www.w3.org/1999/xlink" xlink:href="#ad" xlink:type="simple" xlink:actuate="onLoad" xlink:show="embed"/></g><g><use x="721.645" y="280.63" xmlns:xlink="http://www.w3.org/1999/xlink" xlink:href="#N" xlink:type="simple" xlink:actuate="onLoad" xlink:show="embed"/></g><path fill="#EFF4F3" d="M 778.578125 451.285156 L 641.789062 451.285156 C 636.96875 451.285156 633.039062 447.363281 633.039062 442.546875 L 633.039062 386.421875 C 633.039062 381.609375 636.96875 377.6875 641.789062 377.6875 L 778.578125 377.6875 C 783.398438 377.6875 787.328125 381.609375 787.328125 386.421875 L 787.328125 442.546875 C 787.328125 447.363281 783.398438 451.285156 778.578125 451.285156 Z M 778.578125 451.285156"/><g><use x="666.683" y="407.713" xmlns:xlink="http://www.w3.org/1999/xlink" xlink:href="#b" xlink:type="simple" xlink:actuate="onLoad" xlink:show="embed"/></g><g><use x="679.017" y="407.713" xmlns:xlink="http://www.w3.org/1999/xlink" xlink:href="#c" xlink:type="simple" xlink:actuate="onLoad" xlink:show="embed"/></g><g><use x="684.396" y="407.713" xmlns:xlink="http://www.w3.org/1999/xlink" xlink:href="#d" xlink:type="simple" xlink:actuate="onLoad" xlink:show="embed"/></g><g><use x="696.614" y="407.713" xmlns:xlink="http://www.w3.org/1999/xlink" xlink:href="#e" xlink:type="simple" xlink:actuate="onLoad" xlink:show="embed"/></g><g><use x="708.17" y="407.713" xmlns:xlink="http://www.w3.org/1999/xlink" xlink:href="#f" xlink:type="simple" xlink:actuate="onLoad" xlink:show="embed"/></g><g><use x="726.156" y="407.713" xmlns:xlink="http://www.w3.org/1999/xlink" xlink:href="#c" xlink:type="simple" xlink:actuate="onLoad" xlink:show="embed"/></g><g><use x="731.535" y="407.713" xmlns:xlink="http://www.w3.org/1999/xlink" xlink:href="#g" xlink:type="simple" xlink:actuate="onLoad" xlink:show="embed"/></g><g><use x="742.356" y="407.713" xmlns:xlink="http://www.w3.org/1999/xlink" xlink:href="#h" xlink:type="simple" xlink:actuate="onLoad" xlink:show="embed"/></g><g><use x="645.319" y="437.409" xmlns:xlink="http://www.w3.org/1999/xlink" xlink:href="#q" xlink:type="simple" xlink:actuate="onLoad" xlink:show="embed"/></g><g><use x="657.652" y="437.409" xmlns:xlink="http://www.w3.org/1999/xlink" xlink:href="#j" xlink:type="simple" xlink:actuate="onLoad" xlink:show="embed"/></g><g><use x="669.807" y="437.409" xmlns:xlink="http://www.w3.org/1999/xlink" xlink:href="#d" xlink:type="simple" xlink:actuate="onLoad" xlink:show="embed"/></g><g><use x="682.026" y="437.409" xmlns:xlink="http://www.w3.org/1999/xlink" xlink:href="#l" xlink:type="simple" xlink:actuate="onLoad" xlink:show="embed"/></g><g><use x="689.684" y="437.409" xmlns:xlink="http://www.w3.org/1999/xlink" xlink:href="#j" xlink:type="simple" xlink:actuate="onLoad" xlink:show="embed"/></g><g><use x="701.839" y="437.409" xmlns:xlink="http://www.w3.org/1999/xlink" xlink:href="#k" xlink:type="simple" xlink:actuate="onLoad" xlink:show="embed"/></g><g><use x="707.649" y="437.409" xmlns:xlink="http://www.w3.org/1999/xlink" xlink:href="#h" xlink:type="simple" xlink:actuate="onLoad" xlink:show="embed"/></g><g><use x="719.205" y="437.409" xmlns:xlink="http://www.w3.org/1999/xlink" xlink:href="#l" xlink:type="simple" xlink:actuate="onLoad" xlink:show="embed"/></g><g><use x="726.864" y="437.409" xmlns:xlink="http://www.w3.org/1999/xlink" xlink:href="#o" xlink:type="simple" xlink:actuate="onLoad" xlink:show="embed"/></g><g><use x="735.384" y="437.409" xmlns:xlink="http://www.w3.org/1999/xlink" xlink:href="#h" xlink:type="simple" xlink:actuate="onLoad" xlink:show="embed"/></g><g><use x="746.94" y="437.409" xmlns:xlink="http://www.w3.org/1999/xlink" xlink:href="#l" xlink:type="simple" xlink:actuate="onLoad" xlink:show="embed"/></g><g><use x="754.599" y="437.409" xmlns:xlink="http://www.w3.org/1999/xlink" xlink:href="#j" xlink:type="simple" xlink:actuate="onLoad" xlink:show="embed"/></g><g><use x="766.754" y="437.409" xmlns:xlink="http://www.w3.org/1999/xlink" xlink:href="#o" xlink:type="simple" xlink:actuate="onLoad" xlink:show="embed"/></g><path fill="#EFF4F3" d="M 919.546875 340.289062 L 782.757812 340.289062 C 777.9375 340.289062 774.011719 336.367188 774.011719 331.554688 L 774.011719 275.429688 C 774.011719 270.617188 777.9375 266.695312 782.757812 266.695312 L 919.546875 266.695312 C 924.371094 266.695312 928.296875 270.617188 928.296875 275.429688 L 928.296875 331.554688 C 928.296875 336.367188 924.371094 340.289062 919.546875 340.289062 Z M 919.546875 340.289062"/><g><use x="807.653" y="296.72" xmlns:xlink="http://www.w3.org/1999/xlink" xlink:href="#b" xlink:type="simple" xlink:actuate="onLoad" xlink:show="embed"/></g><g><use x="819.987" y="296.72" xmlns:xlink="http://www.w3.org/1999/xlink" xlink:href="#c" xlink:type="simple" xlink:actuate="onLoad" xlink:show="embed"/></g><g><use x="825.366" y="296.72" xmlns:xlink="http://www.w3.org/1999/xlink" xlink:href="#d" xlink:type="simple" xlink:actuate="onLoad" xlink:show="embed"/></g><g><use x="837.584" y="296.72" xmlns:xlink="http://www.w3.org/1999/xlink" xlink:href="#e" xlink:type="simple" xlink:actuate="onLoad" xlink:show="embed"/></g><g><use x="849.141" y="296.72" xmlns:xlink="http://www.w3.org/1999/xlink" xlink:href="#f" xlink:type="simple" xlink:actuate="onLoad" xlink:show="embed"/></g><g><use x="867.126" y="296.72" xmlns:xlink="http://www.w3.org/1999/xlink" xlink:href="#c" xlink:type="simple" xlink:actuate="onLoad" xlink:show="embed"/></g><g><use x="872.505" y="296.72" xmlns:xlink="http://www.w3.org/1999/xlink" xlink:href="#g" xlink:type="simple" xlink:actuate="onLoad" xlink:show="embed"/></g><g><use x="883.326" y="296.72" xmlns:xlink="http://www.w3.org/1999/xlink" xlink:href="#h" xlink:type="simple" xlink:actuate="onLoad" xlink:show="embed"/></g><g><use x="800.512" y="326.416" xmlns:xlink="http://www.w3.org/1999/xlink" xlink:href="#g" xlink:type="simple" xlink:actuate="onLoad" xlink:show="embed"/></g><g><use x="811.333" y="326.416" xmlns:xlink="http://www.w3.org/1999/xlink" xlink:href="#j" xlink:type="simple" xlink:actuate="onLoad" xlink:show="embed"/></g><g><use x="823.488" y="326.416" xmlns:xlink="http://www.w3.org/1999/xlink" xlink:href="#f" xlink:type="simple" xlink:actuate="onLoad" xlink:show="embed"/></g><g><use x="841.474" y="326.416" xmlns:xlink="http://www.w3.org/1999/xlink" xlink:href="#q" xlink:type="simple" xlink:actuate="onLoad" xlink:show="embed"/></g><g><use x="853.807" y="326.416" xmlns:xlink="http://www.w3.org/1999/xlink" xlink:href="#i" xlink:type="simple" xlink:actuate="onLoad" xlink:show="embed"/></g><g><use x="859.354" y="326.416" xmlns:xlink="http://www.w3.org/1999/xlink" xlink:href="#m" xlink:type="simple" xlink:actuate="onLoad" xlink:show="embed"/></g><g><use x="870.711" y="326.416" xmlns:xlink="http://www.w3.org/1999/xlink" xlink:href="#ae" xlink:type="simple" xlink:actuate="onLoad" xlink:show="embed"/></g><g><use x="881.343" y="326.416" xmlns:xlink="http://www.w3.org/1999/xlink" xlink:href="#j" xlink:type="simple" xlink:actuate="onLoad" xlink:show="embed"/></g><g><use x="893.498" y="326.416" xmlns:xlink="http://www.w3.org/1999/xlink" xlink:href="#o" xlink:type="simple" xlink:actuate="onLoad" xlink:show="embed"/></g><path stroke-linecap="round" transform="matrix(1.38353 -.59518 .59276 1.3779 563.78 251.79)" fill="none" d="M 0.50016 0.00000868862 L 49.048322 0.000305001" stroke="#000"/><path stroke-linecap="round" transform="matrix(1.38353 -.59518 .59276 1.3779 632.68 222.15)" fill="none" stroke-linejoin="round" d="M -2.49936 -1.500496 L -0.499962 0.000989722 L -2.500722 1.501088" stroke="#000"/><path stroke-linecap="round" transform="matrix(-.00938 -1.50222 1.49997 -.00937 818.62 253.852)" fill="none" d="M 0.499563 -0.00106369 L 61.656286 -0.00124882" stroke="#000"/><path stroke-linecap="round" transform="matrix(-.00938 -1.50222 1.49997 -.00937 818.034 160.103)" fill="none" stroke-linejoin="round" d="M -2.499288 -1.499183 L -0.501201 0.000326525 L -2.4998 1.500872" stroke="#000"/><path stroke-linecap="round" transform="matrix(-.02645 -1.4912 1.49976 -.0266 709.406 374.898)" fill="none" d="M 0.500324 -0.00114726 L 21.639893 -0.0008007" stroke="#000"/><path stroke-linecap="round" transform="matrix(-.02645 -1.4912 1.49976 -.0266 708.754 338.154)" stroke-linejoin="round" d="M -2.500016 -1.499999 L -0.499243 -0.000942742 L -2.501148 1.500453 Z M -2.500016 -1.499999" stroke="#000"/><path stroke-linecap="round" transform="matrix(1.49912 -.00203 .00203 1.5 491.703 502.152)" fill="none" d="M 0.500052 0.000700563 L 279.671625 0.000433993" stroke="#000"/><path stroke-linecap="round" transform="matrix(-.00033 -1.4724 1.5 -.00033 911.206 519.938)" fill="none" d="M 0.499109 0.000785288 L 12.238612 0.000738042" stroke="#000"/><path stroke-linecap="round" transform="matrix(.00058 1.5161 -1.5 .00057 492.453 501.403)" fill="none" d="M 0.499248 0.0000487162 L 9.367553 0.000862534" stroke="#000"/><path stroke-linecap="round" transform="matrix(.00058 1.5161 -1.5 .00057 492.46 520.154)" stroke-linejoin="round" d="M -2.500005 -1.498944 L -0.501208 -0.000777209 L -2.501137 1.501056 Z M -2.500005 -1.498944" stroke="#000"/><path fill="#EFF4F3" d="M 426.007812 519.941406 L 566.738281 519.941406 L 566.738281 600.636719 L 426.007812 600.636719 Z M 426.007812 519.941406"/><g><use x="444.767" y="553.916" xmlns:xlink="http://www.w3.org/1999/xlink" xlink:href="#c" xlink:type="simple" xlink:actuate="onLoad" xlink:show="embed"/></g><g><use x="450.146" y="553.916" xmlns:xlink="http://www.w3.org/1999/xlink" xlink:href="#d" xlink:type="simple" xlink:actuate="onLoad" xlink:show="embed"/></g><g><use x="462.364" y="553.916" xmlns:xlink="http://www.w3.org/1999/xlink" xlink:href="#b" xlink:type="simple" xlink:actuate="onLoad" xlink:show="embed"/></g><g><use x="474.698" y="553.916" xmlns:xlink="http://www.w3.org/1999/xlink" xlink:href="#h" xlink:type="simple" xlink:actuate="onLoad" xlink:show="embed"/></g><g><use x="486.254" y="553.916" xmlns:xlink="http://www.w3.org/1999/xlink" xlink:href="#af" xlink:type="simple" xlink:actuate="onLoad" xlink:show="embed"/></g><g><use x="498.588" y="553.916" xmlns:xlink="http://www.w3.org/1999/xlink" xlink:href="#h" xlink:type="simple" xlink:actuate="onLoad" xlink:show="embed"/></g><g><use x="510.144" y="553.916" xmlns:xlink="http://www.w3.org/1999/xlink" xlink:href="#ag" xlink:type="simple" xlink:actuate="onLoad" xlink:show="embed"/></g><g><use x="520.965" y="553.916" xmlns:xlink="http://www.w3.org/1999/xlink" xlink:href="#ah" xlink:type="simple" xlink:actuate="onLoad" xlink:show="embed"/></g><g><use x="532.521" y="553.916" xmlns:xlink="http://www.w3.org/1999/xlink" xlink:href="#j" xlink:type="simple" xlink:actuate="onLoad" xlink:show="embed"/></g><g><use x="440.813" y="583.613" xmlns:xlink="http://www.w3.org/1999/xlink" xlink:href="#q" xlink:type="simple" xlink:actuate="onLoad" xlink:show="embed"/></g><g><use x="453.147" y="583.613" xmlns:xlink="http://www.w3.org/1999/xlink" xlink:href="#o" xlink:type="simple" xlink:actuate="onLoad" xlink:show="embed"/></g><g><use x="461.667" y="583.613" xmlns:xlink="http://www.w3.org/1999/xlink" xlink:href="#j" xlink:type="simple" xlink:actuate="onLoad" xlink:show="embed"/></g><g><use x="473.822" y="583.613" xmlns:xlink="http://www.w3.org/1999/xlink" xlink:href="#q" xlink:type="simple" xlink:actuate="onLoad" xlink:show="embed"/></g><g><use x="486.156" y="583.613" xmlns:xlink="http://www.w3.org/1999/xlink" xlink:href="#j" xlink:type="simple" xlink:actuate="onLoad" xlink:show="embed"/></g><g><use x="498.311" y="583.613" xmlns:xlink="http://www.w3.org/1999/xlink" xlink:href="#p" xlink:type="simple" xlink:actuate="onLoad" xlink:show="embed"/></g><g><use x="508.722" y="583.613" xmlns:xlink="http://www.w3.org/1999/xlink" xlink:href="#c" xlink:type="simple" xlink:actuate="onLoad" xlink:show="embed"/></g><g><use x="514.101" y="583.613" xmlns:xlink="http://www.w3.org/1999/xlink" xlink:href="#ag" xlink:type="simple" xlink:actuate="onLoad" xlink:show="embed"/></g><g><use x="524.922" y="583.613" xmlns:xlink="http://www.w3.org/1999/xlink" xlink:href="#ah" xlink:type="simple" xlink:actuate="onLoad" xlink:show="embed"/></g><g><use x="536.478" y="583.613" xmlns:xlink="http://www.w3.org/1999/xlink" xlink:href="#j" xlink:type="simple" xlink:actuate="onLoad" xlink:show="embed"/></g><path stroke-linecap="round" transform="matrix(1.5011 .00031 -.00031 1.5 507.481 513.115)" fill="none" d="M 0.49914 -0.000946938 L 200.359239 -0.000781713" stroke="#000"/><path stroke-linecap="round" transform="matrix(.00378 1.50799 -1.5 .00376 807.915 512.365)" fill="none" d="M 0.498914 -0.00101847 L 24.85097 0.000374316" stroke="#000"/><path stroke-linecap="round" transform="matrix(.00378 1.50799 -1.5 .00376 808.02 554.365)" stroke-linejoin="round" d="M -2.499937 -1.500991 L -0.498727 -0.00115764 L -2.499637 1.49902 Z M -2.499937 -1.500991" stroke="#000"/><path stroke-linecap="round" transform="matrix(1.48606 .00359 -.00362 1.5 777.849 559.4)" fill="none" d="M 0.501245 0.000773623 L 14.66408 0.000731543" stroke="#000"/><path stroke-linecap="round" transform="matrix(1.48606 .00359 -.00362 1.5 804.1 559.463)" stroke-linejoin="round" d="M -2.499248 -1.500467 L -0.500491 -0.0000383999 L -2.499819 1.499543 Z M -2.499248 -1.500467" stroke="#000"/><path fill="#231F20" d="M 808.054688 554.144531 C 805.570312 554.144531 803.554688 556.160156 803.554688 558.644531 C 803.554688 561.128906 805.570312 563.144531 808.054688 563.144531 C 810.539062 563.144531 812.554688 561.128906 812.554688 558.644531 C 812.554688 556.160156 810.539062 554.144531 808.054688 554.144531 Z M 808.054688 554.144531"/><path stroke-linecap="round" transform="matrix(1.48606 .00359 -.00362 1.5 812.567 559.4)" fill="none" d="M 0.498982 0.000779038 L 14.664446 0.000730667" stroke="#000"/><path stroke-linecap="round" transform="matrix(1.48606 .00359 -.00362 1.5 838.817 559.463)" stroke-linejoin="round" d="M -2.498915 -1.500468 L -0.500157 -0.0000391983 L -2.499485 1.499542 Z M -2.498915 -1.500468" stroke="#000"/><path stroke-linecap="round" transform="matrix(-.0135 1.42803 -1.49993 -.01418 508.298 513.408)" fill="none" d="M 0.499454 0.00127057 L 4.227783 -0.0010233" stroke="#000"/><path fill="#231F20" d="M 706.339844 610.113281 C 703.855469 610.113281 701.839844 612.128906 701.839844 614.613281 C 701.839844 617.097656 703.855469 619.113281 706.339844 619.113281 C 708.824219 619.113281 710.839844 617.097656 710.839844 614.613281 C 710.839844 612.128906 708.824219 610.113281 706.339844 610.113281 Z M 706.339844 610.113281"/><path stroke-linecap="round" transform="matrix(.01006 -1.46982 1.49996 .01026 706.3 613.855)" fill="none" d="M 0.499279 -0.000368717 L 5.166086 -0.000411975" stroke="#000"/><path stroke-linecap="round" transform="matrix(.01006 -1.46982 1.49996 .01026 706.382 601.85)" stroke-linejoin="round" d="M -2.498681 -1.501183 L -0.500279 0.00107702 L -2.498991 1.49889 Z M -2.498681 -1.501183" stroke="#000"/><path stroke-linecap="round" transform="matrix(1.50037 .00087 -.00087 1.5 512.883 613.983)" fill="none" d="M 0.499701 0.000793126 L 122.971943 -0.000166932" stroke="#000"/><path stroke-linecap="round" transform="matrix(1.50037 .00087 -.00087 1.5 701.886 614.093)" stroke-linejoin="round" d="M -2.499739 -1.500461 L -0.499361 0.000979199 L -2.500597 1.49954 Z M -2.499739 -1.500461" stroke="#000"/><path stroke-linecap="round" transform="matrix(.00259 1.46499 -1.5 .00265 513.698 600.805)" fill="none" d="M 0.500827 -0.000143704 L 8.206731 0.000117135" stroke="#000"/><path stroke-linecap="round" transform="matrix(-1.49644 .00615 -.00617 -1.49999 859.87 614.23)" fill="none" d="M 0.500296 -0.000577733 L 96.237645 -0.000966002" stroke="#000"/><path stroke-linecap="round" transform="matrix(-1.49644 .00615 -.00617 -1.49999 711.367 614.841)" stroke-linejoin="round" d="M -2.499611 -1.498913 L -0.501034 -0.00111637 L -2.498928 1.501115 Z M -2.499611 -1.498913" stroke="#000"/><path stroke-linecap="round" transform="matrix(.00259 1.46499 -1.5 .00265 859.1 600.422)" fill="none" d="M 0.50121 0.000416207 L 8.207115 0.000677046" stroke="#000"/><path stroke-linecap="round" transform="matrix(1.4991 -.00236 .00236 1.5 491.704 623.438)" fill="none" d="M 0.500008 0.000451064 L 273.664955 0.000984287" stroke="#000"/><path stroke-linecap="round" transform="matrix(1.4991 -.00236 .00236 1.5 906.456 622.784)" stroke-linejoin="round" d="M -2.500916 -1.500873 L -0.499487 -0.000322945 L -2.500435 1.499132 Z M -2.500916 -1.500873" stroke="#000"/><path fill="#231F20" d="M 911.203125 618.183594 C 908.714844 618.183594 906.703125 620.199219 906.703125 622.683594 C 906.703125 625.167969 908.714844 627.183594 911.203125 627.183594 C 913.6875 627.183594 915.703125 625.167969 915.703125 622.683594 C 915.703125 620.199219 913.6875 618.183594 911.203125 618.183594 Z M 911.203125 618.183594"/><path stroke-linecap="round" transform="matrix(.0419 -1.47633 1.4994 .04255 911.123 619.116)" fill="none" d="M 0.499348 0.000534781 L 8.6832 0.00111746" stroke="#000"/><path stroke-linecap="round" transform="matrix(.0419 -1.47633 1.4994 .04255 911.612 601.87)" stroke-linejoin="round" d="M -2.499988 -1.500395 L -0.49879 -0.000999717 L -2.500801 1.500836 Z M -2.499988 -1.500395" stroke="#000"/><path stroke-linecap="round" transform="matrix(-.0011 1.49927 -1.5 -.0011 491.682 600.174)" fill="none" d="M 0.498738 0.00105175 L 15.511279 0.000464258" stroke="#000"/><path fill="#EFF4F3" d="M 637.230469 519.941406 L 777.476562 519.941406 L 777.476562 600.941406 L 637.230469 600.941406 Z M 637.230469 519.941406"/><g><use x="649.649" y="553.916" xmlns:xlink="http://www.w3.org/1999/xlink" xlink:href="#q" xlink:type="simple" xlink:actuate="onLoad" xlink:show="embed"/></g><g><use x="661.982" y="553.916" xmlns:xlink="http://www.w3.org/1999/xlink" xlink:href="#j" xlink:type="simple" xlink:actuate="onLoad" xlink:show="embed"/></g><g><use x="674.138" y="553.916" xmlns:xlink="http://www.w3.org/1999/xlink" xlink:href="#p" xlink:type="simple" xlink:actuate="onLoad" xlink:show="embed"/></g><g><use x="684.549" y="553.916" xmlns:xlink="http://www.w3.org/1999/xlink" xlink:href="#c" xlink:type="simple" xlink:actuate="onLoad" xlink:show="embed"/></g><g><use x="689.928" y="553.916" xmlns:xlink="http://www.w3.org/1999/xlink" xlink:href="#l" xlink:type="simple" xlink:actuate="onLoad" xlink:show="embed"/></g><g><use x="697.586" y="553.916" xmlns:xlink="http://www.w3.org/1999/xlink" xlink:href="#c" xlink:type="simple" xlink:actuate="onLoad" xlink:show="embed"/></g><g><use x="702.965" y="553.916" xmlns:xlink="http://www.w3.org/1999/xlink" xlink:href="#ai" xlink:type="simple" xlink:actuate="onLoad" xlink:show="embed"/></g><g><use x="713.555" y="553.916" xmlns:xlink="http://www.w3.org/1999/xlink" xlink:href="#c" xlink:type="simple" xlink:actuate="onLoad" xlink:show="embed"/></g><g><use x="718.934" y="553.916" xmlns:xlink="http://www.w3.org/1999/xlink" xlink:href="#b" xlink:type="simple" xlink:actuate="onLoad" xlink:show="embed"/></g><g><use x="731.268" y="553.916" xmlns:xlink="http://www.w3.org/1999/xlink" xlink:href="#h" xlink:type="simple" xlink:actuate="onLoad" xlink:show="embed"/></g><g><use x="742.824" y="553.916" xmlns:xlink="http://www.w3.org/1999/xlink" xlink:href="#b" xlink:type="simple" xlink:actuate="onLoad" xlink:show="embed"/></g><g><use x="755.158" y="553.916" xmlns:xlink="http://www.w3.org/1999/xlink" xlink:href="#m" xlink:type="simple" xlink:actuate="onLoad" xlink:show="embed"/></g><g><use x="646.048" y="583.613" xmlns:xlink="http://www.w3.org/1999/xlink" xlink:href="#d" xlink:type="simple" xlink:actuate="onLoad" xlink:show="embed"/></g><g><use x="658.266" y="583.613" xmlns:xlink="http://www.w3.org/1999/xlink" xlink:href="#m" xlink:type="simple" xlink:actuate="onLoad" xlink:show="embed"/></g><g><use x="669.623" y="583.613" xmlns:xlink="http://www.w3.org/1999/xlink" xlink:href="#af" xlink:type="simple" xlink:actuate="onLoad" xlink:show="embed"/></g><g><use x="681.956" y="583.613" xmlns:xlink="http://www.w3.org/1999/xlink" xlink:href="#h" xlink:type="simple" xlink:actuate="onLoad" xlink:show="embed"/></g><g><use x="693.513" y="583.613" xmlns:xlink="http://www.w3.org/1999/xlink" xlink:href="#l" xlink:type="simple" xlink:actuate="onLoad" xlink:show="embed"/></g><g><use x="701.171" y="583.613" xmlns:xlink="http://www.w3.org/1999/xlink" xlink:href="#c" xlink:type="simple" xlink:actuate="onLoad" xlink:show="embed"/></g><g><use x="706.55" y="583.613" xmlns:xlink="http://www.w3.org/1999/xlink" xlink:href="#ai" xlink:type="simple" xlink:actuate="onLoad" xlink:show="embed"/></g><g><use x="717.14" y="583.613" xmlns:xlink="http://www.w3.org/1999/xlink" xlink:href="#c" xlink:type="simple" xlink:actuate="onLoad" xlink:show="embed"/></g><g><use x="722.519" y="583.613" xmlns:xlink="http://www.w3.org/1999/xlink" xlink:href="#b" xlink:type="simple" xlink:actuate="onLoad" xlink:show="embed"/></g><g><use x="734.853" y="583.613" xmlns:xlink="http://www.w3.org/1999/xlink" xlink:href="#h" xlink:type="simple" xlink:actuate="onLoad" xlink:show="embed"/></g><g><use x="746.409" y="583.613" xmlns:xlink="http://www.w3.org/1999/xlink" xlink:href="#b" xlink:type="simple" xlink:actuate="onLoad" xlink:show="embed"/></g><g><use x="758.743" y="583.613" xmlns:xlink="http://www.w3.org/1999/xlink" xlink:href="#m" xlink:type="simple" xlink:actuate="onLoad" xlink:show="embed"/></g><path stroke-linecap="round" transform="matrix(-.91118 -1.18945 1.19076 -.91219 639.001 475.223)" fill="none" d="M 0.498917 0.000234713 L 110.125756 -0.000638397" stroke="#000"/><path stroke-linecap="round" transform="matrix(-.91118 -1.18945 1.19076 -.91219 535.924 340.666)" stroke-linejoin="round" d="M -2.499046 -1.5008 L -0.500047 -0.000678992 L -2.500986 1.499336 Z M -2.499046 -1.5008" stroke="#000"/><path stroke-linecap="round" transform="matrix(.80168 -1.26976 1.26835 .8008 791.095 474.818)" fill="none" d="M 0.500028 0.000201276 L 105.139328 -0.00041637" stroke="#000"/><path stroke-linecap="round" transform="matrix(.80168 -1.26976 1.26835 .8008 875.984 340.365)" fill="none" stroke-linejoin="round" d="M -2.500743 -1.499097 L -0.500595 -0.000760548 L -2.500852 1.500674" stroke="#000"/><path stroke-linecap="round" transform="matrix(-.01224 -1.51309 1.49995 -.01213 709.049 475.217)" fill="none" d="M 0.499593 0.000272796 L 10.389878 0.000247813" stroke="#000"/><path stroke-linecap="round" transform="matrix(-.01224 -1.51309 1.49995 -.01213 708.885 454.956)" stroke-linejoin="round" d="M -2.500636 -1.500948 L -0.498987 -0.000190087 L -2.498878 1.499165 Z M -2.500636 -1.500948" stroke="#000"/><path fill="#FFF" d="M 1013.34375 453.792969 L 1033.59375 453.792969 L 1033.59375 479.289062 L 1013.34375 479.289062 Z M 1013.34375 453.792969"/><path fill="#FFF" d="M 997.292969 448.699219 L 1017.542969 448.699219 L 1017.542969 474.195312 L 997.292969 474.195312 Z M 997.292969 448.699219"/><path fill="#FFF" d="M 389.195312 455.132812 L 409.445312 455.132812 L 409.445312 480.628906 L 389.195312 480.628906 Z M 389.195312 455.132812"/><path fill="#FFF" d="M 399.246094 448.699219 L 419.496094 448.699219 L 419.496094 474.195312 L 399.246094 474.195312 Z M 399.246094 448.699219"/><path fill="#FFF" d="M 389.195312 708.242188 L 409.445312 708.242188 L 409.445312 733.734375 L 389.195312 733.734375 Z M 389.195312 708.242188"/><path fill="#FFF" d="M 406.648438 711.992188 L 426.898438 711.992188 L 426.898438 737.484375 L 406.648438 737.484375 Z M 406.648438 711.992188"/><path fill="#FFF" d="M 995.265625 711.992188 L 1015.515625 711.992188 L 1015.515625 737.484375 L 995.265625 737.484375 Z M 995.265625 711.992188"/><path fill="#FFF" d="M 1013.34375 698.128906 L 1033.59375 698.128906 L 1033.59375 716.128906 L 1013.34375 716.128906 Z M 1013.34375 698.128906"/></svg>