<svg xmlns="http://www.w3.org/2000/svg" xmlns:xlink="http://www.w3.org/1999/xlink" xmlns:lucid="lucid" width="1170.51" height="792.85"><g transform="translate(-100 -317.6666666666667)" lucid:page-tab-id="g_LzzOaJ4BGv"><path d="M568 340c17.67 0 32 17.9 32 40s-14.33 40-32 40h-96c-17.67 0-32-17.9-32-40s14.33-40 32-40z" stroke="#333" stroke-width="4" fill="#fff"/><use xlink:href="#a" transform="matrix(1,0,0,1,445,345) translate(37.01851851851852 40.201388888888886)"/><path d="M680 345.67c0-4.42 3.58-8 8-8h144c4.42 0 8 3.58 8 8v68.66c0 4.42-3.58 8-8 8H688c-4.42 0-8-3.58-8-8z" stroke="#333" stroke-width="4" fill="#fff"/><use xlink:href="#b" transform="matrix(1,0,0,1,685,342.6666666666667) translate(41.94444444444444 24.888888888888886)"/><use xlink:href="#c" transform="matrix(1,0,0,1,685,342.6666666666667) translate(67.00617283950618 24.888888888888886)"/><use xlink:href="#d" transform="matrix(1,0,0,1,685,342.6666666666667) translate(92.5 24.888888888888886)"/><use xlink:href="#e" transform="matrix(1,0,0,1,685,342.6666666666667) translate(44.53703703703704 62.222222222222214)"/><use xlink:href="#f" transform="matrix(1,0,0,1,685,342.6666666666667) translate(64.41358024691358 62.222222222222214)"/><use xlink:href="#g" transform="matrix(1,0,0,1,685,342.6666666666667) translate(89.9074074074074 62.222222222222214)"/><path d="M943.6 444.8c3.53-2.65 9.27-2.65 12.8 0l67.2 50.4c3.53 2.65 3.53 6.95 0 9.6l-67.2 50.4c-3.53 2.65-9.27 2.65-12.8 0l-67.2-50.4c-3.53-2.65-3.53-6.95 0-9.6z" stroke="#333" stroke-width="4" fill="#fff"/><use xlink:href="#h" transform="matrix(1,0,0,1,875,445) translate(18.11611111111112 59.343333333333334)"/><path d="M260 468c0-4.42 3.58-8 8-8h144c4.42 0 8 3.58 8 8v64c0 4.42-3.58 8-8 8H268c-4.42 0-8-3.58-8-8z" stroke="#333" stroke-width="4" fill="#fff"/><use xlink:href="#b" transform="matrix(1,0,0,1,265,465) translate(16.666666666666664 40.201388888888886)"/><use xlink:href="#c" transform="matrix(1,0,0,1,265,465) translate(41.72839506172839 40.201388888888886)"/><use xlink:href="#i" transform="matrix(1,0,0,1,265,465) translate(67.22222222222223 40.201388888888886)"/><use xlink:href="#j" transform="matrix(1,0,0,1,265,465) translate(92.28395061728395 40.201388888888886)"/><use xlink:href="#k" transform="matrix(1,0,0,1,265,465) translate(117.77777777777777 40.201388888888886)"/><path d="M1103 467.73c1.13-4.27 5.63-7.73 10.05-7.73h122.67c4.4 0 7.07 3.46 5.93 7.73l-17.2 64.54c-1.14 4.27-5.65 7.73-10.07 7.73h-122.66c-4.42 0-7.08-3.46-5.94-7.73z" stroke="#333" stroke-width="4" fill="#fff"/><use xlink:href="#l" transform="matrix(1,0,0,1,1088.7154825201992,465) translate(30.998827160493832 40.201388888888886)"/><use xlink:href="#m" transform="matrix(1,0,0,1,1088.7154825201992,465) translate(107.91240740740741 40.201388888888886)"/><path d="M1218.5 608c17.7 0 32 17.9 32 40s-14.3 40-32 40h-96c-17.66 0-32-17.9-32-40s14.34-40 32-40z" stroke="#333" stroke-width="4" fill="#fff"/><use xlink:href="#n" transform="matrix(1,0,0,1,1095.5124021523063,613) translate(48.2962962962963 40.201388888888886)"/><path d="M604 380h51.26" stroke="#333" stroke-width="4" fill="none"/><path d="M604.05 382h-2.17l.12-1.97-.07-2.03h2.12" fill="#333"/><path d="M671.53 380l-14.27 4.64v-9.28z" stroke="#333" stroke-width="4" fill="#333"/><path d="M844 383.08h96c5.52 0 10 4.48 10 10v25.1" stroke="#333" stroke-width="4" fill="none"/><path d="M844.05 385.08H842v-4h2.05" fill="#333"/><path d="M950 434.44l-4.64-14.26h9.28z" stroke="#333" stroke-width="4" fill="#333"/><path d="M869.86 500H800.4" stroke="#333" stroke-width="4" fill="none"/><path d="M871.93 498.2l-.12 3 .32.8h-2.3v-4h2.2" fill="#333"/><path d="M784.15 500l14.26-4.64v9.28z" stroke="#333" stroke-width="4" fill="#333"/><use xlink:href="#o" transform="matrix(1,0,0,1,810.8223575092044,464) translate(0 21.333333333333332)"/><path d="M333.6 592.8c3.53-2.65 9.27-2.65 12.8 0l67.2 50.4c3.53 2.65 3.53 6.95 0 9.6l-67.2 50.4c-3.53 2.65-9.27 2.65-12.8 0l-67.2-50.4c-3.53-2.65-3.53-6.95 0-9.6z" stroke="#333" stroke-width="4" fill="#fff"/><use xlink:href="#b" transform="matrix(1,0,0,1,265,593) translate(42.29512345679012 62.701388888888886)"/><use xlink:href="#p" transform="matrix(1,0,0,1,265,593) translate(67.35685185185184 62.701388888888886)"/><use xlink:href="#q" transform="matrix(1,0,0,1,265,593) translate(92.15932098765433 62.701388888888886)"/><path d="M420.14 648h115.12" stroke="#333" stroke-width="4" fill="none"/><path d="M420.2 650h-2.23l.1-.2.12-3-.32-.8h2.3" fill="#333"/><path d="M551.53 648l-14.27 4.64v-9.28z" stroke="#333" stroke-width="4" fill="#333"/><use xlink:href="#r" transform="matrix(1,0,0,1,454.12920986397734,612) translate(0 21.333333333333336)"/><path d="M560 616c0-4.42 3.58-8 8-8h244c4.42 0 8 3.58 8 8v64c0 4.42-3.58 8-8 8H568c-4.42 0-8-3.58-8-8z" stroke="#333" stroke-width="4" fill="#fff"/><use xlink:href="#s" transform="matrix(1,0,0,1,565,613) translate(1.1604938271604937 40.201388888888886)"/><use xlink:href="#c" transform="matrix(1,0,0,1,565,613) translate(21.037037037037035 40.201388888888886)"/><use xlink:href="#t" transform="matrix(1,0,0,1,565,613) translate(46.53086419753086 40.201388888888886)"/><use xlink:href="#j" transform="matrix(1,0,0,1,565,613) translate(66.4074074074074 40.201388888888886)"/><use xlink:href="#u" transform="matrix(1,0,0,1,565,613) translate(91.90123456790123 40.201388888888886)"/><use xlink:href="#v" transform="matrix(1,0,0,1,565,613) translate(135.80246913580248 40.201388888888886)"/><use xlink:href="#w" transform="matrix(1,0,0,1,565,613) translate(159.1358024691358 40.201388888888886)"/><use xlink:href="#v" transform="matrix(1,0,0,1,565,613) translate(208.22222222222223 40.201388888888886)"/><use xlink:href="#x" transform="matrix(1,0,0,1,565,613) translate(231.55555555555554 40.201388888888886)"/><path d="M340 544v22.18" stroke="#333" stroke-width="4" fill="none"/><path d="M342 544.05h-4V542h4" fill="#333"/><path d="M340 582.44l-4.64-14.26h9.28z" stroke="#333" stroke-width="4" fill="#333"/><path d="M340 709.1v57.08" stroke="#333" stroke-width="4" fill="none"/><path d="M342 709.14h-4v-2.08h.02l3.66.04.32-.08" fill="#333"/><path d="M340 782.44l-4.64-14.26h9.28z" stroke="#333" stroke-width="4" fill="#333"/><use xlink:href="#y" transform="matrix(1,0,0,1,348.00000000000006,732) translate(0 21.333333333333336)"/><path d="M333.6 792.8c3.53-2.65 9.27-2.65 12.8 0l67.2 50.4c3.53 2.65 3.53 6.95 0 9.6l-67.2 50.4c-3.53 2.65-9.27 2.65-12.8 0l-67.2-50.4c-3.53-2.65-3.53-6.95 0-9.6z" stroke="#333" stroke-width="4" fill="#fff"/><use xlink:href="#z" transform="matrix(1,0,0,1,265,793) translate(35.424753086419756 62.701388888888886)"/><use xlink:href="#p" transform="matrix(1,0,0,1,265,793) translate(74.22722222222222 62.701388888888886)"/><use xlink:href="#k" transform="matrix(1,0,0,1,265,793) translate(99.02969135802469 62.701388888888886)"/><path d="M1030.14 500h46.84" stroke="#333" stroke-width="4" fill="none"/><path d="M1030.2 502h-2.23l.1-.2.12-3-.32-.8h2.3" fill="#333"/><path d="M1093.24 500l-14.26 4.64v-9.28z" stroke="#333" stroke-width="4" fill="#333"/><use xlink:href="#y" transform="matrix(1,0,0,1,1029.873038153134,459.3647450843758) translate(0 21.333333333333336)"/><path d="M120 916c0-4.42 3.58-8 8-8h144c4.42 0 8 3.58 8 8v64c0 4.42-3.58 8-8 8H128c-4.42 0-8-3.58-8-8z" stroke="#333" stroke-width="4" fill="#fff"/><use xlink:href="#s" transform="matrix(1,0,0,1,125,913) translate(24.70370370370371 40.201388888888886)"/><use xlink:href="#c" transform="matrix(1,0,0,1,125,913) translate(44.580246913580254 40.201388888888886)"/><use xlink:href="#t" transform="matrix(1,0,0,1,125,913) translate(70.07407407407408 40.201388888888886)"/><use xlink:href="#A" transform="matrix(1,0,0,1,125,913) translate(89.95061728395062 40.201388888888886)"/><use xlink:href="#x" transform="matrix(1,0,0,1,125,913) translate(108.01234567901234 40.201388888888886)"/><path d="M400 916c0-4.42 3.58-8 8-8h144c4.42 0 8 3.58 8 8v64c0 4.42-3.58 8-8 8H408c-4.42 0-8-3.58-8-8z" stroke="#333" stroke-width="4" fill="#fff"/><use xlink:href="#s" transform="matrix(1,0,0,1,405,913) translate(20.98765432098766 40.201388888888886)"/><use xlink:href="#c" transform="matrix(1,0,0,1,405,913) translate(40.8641975308642 40.201388888888886)"/><use xlink:href="#t" transform="matrix(1,0,0,1,405,913) translate(66.35802469135803 40.201388888888886)"/><use xlink:href="#j" transform="matrix(1,0,0,1,405,913) translate(86.23456790123457 40.201388888888886)"/><use xlink:href="#x" transform="matrix(1,0,0,1,405,913) translate(111.72839506172839 40.201388888888886)"/><path d="M259.86 848H210c-5.52 0-10 4.48-10 10v25.26" stroke="#333" stroke-width="4" fill="none"/><path d="M261.93 846.2l-.12 3 .32.8h-2.3v-4h2.2" fill="#333"/><path d="M200 899.53l-4.64-14.27h9.28z" stroke="#333" stroke-width="4" fill="#333"/><use xlink:href="#r" transform="matrix(1,0,0,1,210.09394221909037,812) translate(0 21.333333333333336)"/><path d="M420.14 848H470c5.52 0 10 4.48 10 10v25.26" stroke="#333" stroke-width="4" fill="none"/><path d="M420.2 850h-2.23l.1-.2.12-3-.32-.8h2.3" fill="#333"/><path d="M480 899.53l-4.64-14.27h9.28z" stroke="#333" stroke-width="4" fill="#333"/><use xlink:href="#y" transform="matrix(1,0,0,1,416.09737398293953,812) translate(0 21.333333333333336)"/><path d="M824 648h92" stroke="#333" stroke-width="4" fill="none"/><path d="M824.05 650H822v-4h2.05" fill="#333"/><path d="M932.28 648L918 652.64v-9.28z" stroke="#333" stroke-width="4" fill="#333"/><path d="M960 650c0 5.52-4.48 10-10 10s-10-4.48-10-10 4.48-10 10-10 10 4.48 10 10z" stroke="#5e5e5e" stroke-width="3" fill="#333"/><path d="M950 636.5V581.8" stroke="#333" stroke-width="4" fill="none"/><path d="M952 638.75l-2-.26-2 .25v-2.3h4" fill="#333"/><path d="M950 565.56l4.64 14.26h-9.28z" stroke="#333" stroke-width="4" fill="#333"/><path d="M350 1038c0 5.52-4.48 10-10 10s-10-4.48-10-10 4.48-10 10-10 10 4.48 10 10z" stroke="#5e5e5e" stroke-width="3" fill="#333"/><path d="M200 992v36c0 5.52 4.48 10 10 10h95.75" stroke="#333" stroke-width="4" fill="none"/><path d="M202 992.05h-4V990h4" fill="#333"/><path d="M322.02 1038l-14.27 4.64v-9.28z" stroke="#333" stroke-width="4" fill="#333"/><path d="M480 992v36c0 5.52-4.48 10-10 10h-95.75" stroke="#333" stroke-width="4" fill="none"/><path d="M482 992.05h-4V990h4" fill="#333"/><path d="M357.98 1038l14.27-4.64v9.28z" stroke="#333" stroke-width="4" fill="#333"/><path d="M340 1051.52v28c0 5.52 4.48 10 10 10h590c5.52 0 10-4.48 10-10V684.26" stroke="#333" stroke-width="4" fill="none"/><path d="M342 1051.57h-4v-2.37l2 .32 2-.32" fill="#333"/><path d="M950 668l4.64 14.26h-9.28z" stroke="#333" stroke-width="4" fill="#333"/><path d="M1170.73 544v29.9c0 .05-.05.1-.1.1-.07 0-.12.05-.12.1v9.16" stroke="#333" stroke-width="4" fill="none"/><path d="M1172.73 544.05h-4V542h4" fill="#333"/><path d="M1170.5 599.53l-4.62-14.27h9.27z" stroke="#333" stroke-width="4" fill="#333"/><path d="M607.08 467.73c1.14-4.27 5.65-7.73 10.06-7.73h161.13c4.42 0 7.08 3.46 5.94 7.73L767 532.27c-1.14 4.27-5.64 7.73-10.06 7.73H595.8c-4.4 0-7.07-3.46-5.93-7.73z" stroke="#333" stroke-width="4" fill="#fff"/><g><use xlink:href="#B" transform="matrix(1,0,0,1,592.8106508848957,465) translate(23.381543209876547 40.201388888888886)"/><use xlink:href="#C" transform="matrix(1,0,0,1,592.8106508848957,465) translate(134.60376543209878 40.201388888888886)"/></g><path d="M594.4 500H444.75" stroke="#333" stroke-width="4" fill="none"/><path d="M595.87 502h-1.5v-4h2.57" fill="#333"/><path d="M428.47 500l14.27-4.64v9.28z" stroke="#333" stroke-width="4" fill="#333"/><path d="M770 1008c0 6.63-35.82 12-80 12s-80-5.37-80-12v-96c0-6.63 35.82-12 80-12s80 5.37 80 12z" stroke="#333" stroke-width="4" fill="#fff"/><path d="M770 912c0 6.63-35.82 12-80 12s-80-5.37-80-12" stroke="#333" stroke-width="4" fill="none"/><g><use xlink:href="#D" transform="matrix(1,0,0,1,615,929) translate(7.679012345679027 49.076388888888886)"/></g><path d="M560 768c0-4.42 3.58-8 8-8h244c4.42 0 8 3.58 8 8v64c0 4.42-3.58 8-8 8H568c-4.42 0-8-3.58-8-8z" stroke="#333" stroke-width="4" fill="#fff"/><g><use xlink:href="#E" transform="matrix(1,0,0,1,565,765) translate(16.024691358024697 40.201388888888886)"/><use xlink:href="#c" transform="matrix(1,0,0,1,565,765) translate(49.64197530864198 40.201388888888886)"/><use xlink:href="#F" transform="matrix(1,0,0,1,565,765) translate(75.13580246913581 40.201388888888886)"/></g><path d="M690 896v-31.26" stroke="#333" stroke-width="4" fill="none"/><path d="M692 898.06l-1.97-.06H688v-2.05h4" fill="#333"/><path d="M690 848.47l4.64 14.27h-9.28z" stroke="#333" stroke-width="4" fill="#333"/><path d="M690 756v-43.26" stroke="#333" stroke-width="4" fill="none"/><path d="M692 758h-4v-2.05h4" fill="#333"/><path d="M690 696.47l4.64 14.27h-9.28z" stroke="#333" stroke-width="4" fill="#333"/><path d="M800 904c0-3.3 2.7-6 6-6h128c3.3 0 6 2.7 6 6v114c-23.38-20.04-37.94-20.04-46.76-20.04-14 0-32.62 20.04-46.62 20.04-8.68 0-23.38 0-46.62-20.04z" stroke="#333" stroke-width="4" fill="#fff"/><g><use xlink:href="#G" transform="matrix(1,0,0,1,805,903) translate(8.947530864197553 34.3611111111111)"/><use xlink:href="#H" transform="matrix(1,0,0,1,805,903) translate(30.61419753086421 34.3611111111111)"/><use xlink:href="#I" transform="matrix(1,0,0,1,805,903) translate(61.83024691358025 34.3611111111111)"/><use xlink:href="#J" transform="matrix(1,0,0,1,805,903) translate(8.947530864197553 69.02777777777776)"/><use xlink:href="#K" transform="matrix(1,0,0,1,805,903) translate(30.61419753086421 69.02777777777776)"/><use xlink:href="#L" transform="matrix(1,0,0,1,805,903) translate(61.83024691358025 69.02777777777776)"/></g><g><path d="M799 962c0 .55-.45 1-1 1h-26c-.55 0-1-.45-1-1s.45-1 1-1h26c.55 0 1 .45 1 1z" stroke="#333" stroke-width="2" fill="none"/></g><path d="M690 544v39.26" stroke="#333" stroke-width="4" fill="none"/><path d="M692 544.05h-4V542h4" fill="#333"/><path d="M690 599.53l-4.64-14.27h9.28z" stroke="#333" stroke-width="4" fill="#333"/><defs><path fill="#3d4752" d="M98-18l30 5V0H12v-13l30-5v-200l-30-5v-13h116v13l-30 5v200" id="M"/><path fill="#3d4752" d="M127-114c3-31-26-38-50-25v123l15 4V0H10v-12l16-4v-133l-16-5v-11h64l2 14c31-23 102-32 102 30v105l17 4V0h-82v-12l14-4v-98" id="N"/><path fill="#3d4752" d="M77-16l18 4V0H8v-12l18-4v-133l-17-5v-11h68v149zM41-197c-6-1-18 4-16-5l30-48h50v6" id="O"/><path fill="#3d4752" d="M109-18c15 0 31-2 42-6v14c-11 9-31 13-51 13-59 0-86-28-88-86-3-75 66-101 135-80v48h-13c-3-20-7-40-34-37-51 7-55 138 9 134" id="P"/><path fill="#3d4752" d="M77-16l18 4V0H8v-12l18-4v-133l-17-5v-11h68v149zM51-196c-16 0-27-10-27-27s10-27 27-27 27 11 27 27c0 17-10 27-27 27" id="Q"/><path fill="#3d4752" d="M90-170c54-1 76 32 76 87 1 56-23 87-77 87-53 0-75-32-75-87s23-86 76-87zM89-14c28-2 26-38 26-69s3-69-26-69c-27 0-24 39-24 69s-3 66 24 69" id="R"/><g id="a"><use transform="matrix(0.08641975308641975,0,0,0.08641975308641975,0,0)" xlink:href="#M"/><use transform="matrix(0.08641975308641975,0,0,0.08641975308641975,12.098765432098764,0)" xlink:href="#N"/><use transform="matrix(0.08641975308641975,0,0,0.08641975308641975,29.382716049382715,0)" xlink:href="#O"/><use transform="matrix(0.08641975308641975,0,0,0.08641975308641975,38.02469135802469,0)" xlink:href="#P"/><use transform="matrix(0.08641975308641975,0,0,0.08641975308641975,51.76543209876543,0)" xlink:href="#Q"/><use transform="matrix(0.08641975308641975,0,0,0.08641975308641975,60.407407407407405,0)" xlink:href="#R"/></g><path fill="#333" d="M127-114c3-31-26-38-50-25v123l15 4V0H10v-12l16-4v-133l-16-5v-11h64l2 14c31-23 102-32 102 30v105l17 4V0h-82v-12l14-4v-98" id="S"/><use transform="matrix(0.08641975308641975,0,0,0.08641975308641975,0,0)" xlink:href="#S" id="b"/><path fill="#333" d="M185-96v25H18v-25h167zm0-72v25H18v-25h167" id="T"/><use transform="matrix(0.08641975308641975,0,0,0.08641975308641975,0,0)" xlink:href="#T" id="c"/><path fill="#333" d="M90-239c59 0 76 52 76 120S152 4 89 4C31 4 14-51 14-119c0-67 17-120 76-120zm12 218c20-45 19-147 0-194-29-20-34 20-36 53-1 47-4 109 11 141 6 10 21 10 25 0" id="U"/><use transform="matrix(0.08641975308641975,0,0,0.08641975308641975,0,0)" xlink:href="#U" id="d"/><path fill="#333" d="M98-18l30 5V0H12v-13l30-5v-200l-30-5v-13h116v13l-30 5v200" id="V"/><use transform="matrix(0.08641975308641975,0,0,0.08641975308641975,0,0)" xlink:href="#V" id="e"/><use transform="matrix(0.08641975308641975,0,0,0.08641975308641975,0,0)" xlink:href="#T" id="f"/><use transform="matrix(0.08641975308641975,0,0,0.08641975308641975,0,0)" xlink:href="#U" id="g"/><path fill="#333" d="M77-16l18 4V0H8v-12l18-4v-133l-17-5v-11h68v149zM51-196c-16 0-27-10-27-27s10-27 27-27 27 11 27 27c0 17-10 27-27 27" id="W"/><path fill="#333" d="M78-41c-2 24 21 26 40 20C122 3 98 2 77 4 5 10 32-84 27-147H6v-11l25-7 21-38h26v38h35v18H78v106" id="X"/><path fill="#333" d="M12-83c0-55 22-85 75-86 52-1 66 33 63 88H64c-1 37 6 64 44 63 14 0 28-4 39-6 3 28-28 25-55 27-57 4-80-31-80-86zm90-17c2-26 0-63-27-48-10 9-11 28-11 48h38" id="Y"/><path fill="#333" d="M132-132c-21 0-37 9-50 16v100l26 4V0H10v-12l21-4v-133l-21-5v-11h69l2 34c17-18 35-41 71-40v61c-17 3-14-14-20-22" id="Z"/><path fill="#333" d="M31-163c51-5 127-20 127 40v107l17 4V0h-61l-4-13C82 13 12 12 12-46c0-51 46-52 95-53 9-45-22-69-57-44l-7 20H31v-40zM62-47c0 30 26 34 45 23v-59c-28 0-45 6-45 36" id="aa"/><path fill="#333" d="M9 41c2-18 18-26 32-33C29 1 16-9 16-28l29-33c-21-9-31-25-31-51-2-56 61-65 111-53l39-20c13 12-9 24-14 36 35 54-17 114-90 92-17 34 27 28 56 28 36-1 61 12 60 46-2 46-39 62-91 62-38 0-71-6-76-38zm35-3c6 35 97 29 94-9-2-28-50-14-78-17-8 7-15 14-16 26zm20-150c0 22 4 40 23 40 20 0 24-17 24-40 0-24-4-40-24-40-19 0-23 17-23 40" id="ab"/><path fill="#333" d="M107-24C107-7 96 5 78 5S49-7 49-24s11-29 29-29 29 12 29 29zM22-231c65-19 159-3 133 78-9 28-34 42-64 49l-5 35H68l-10-55c29-5 50-15 50-51 0-40-32-56-63-38l-8 34H22v-52" id="ac"/><g id="h"><use transform="matrix(0.07407407407407407,0,0,0.07407407407407407,0,0)" xlink:href="#W"/><use transform="matrix(0.07407407407407407,0,0,0.07407407407407407,7.4074074074074066,0)" xlink:href="#S"/><use transform="matrix(0.07407407407407407,0,0,0.07407407407407407,22.22222222222222,0)" xlink:href="#X"/><use transform="matrix(0.07407407407407407,0,0,0.07407407407407407,31.037037037037038,0)" xlink:href="#Y"/><use transform="matrix(0.07407407407407407,0,0,0.07407407407407407,42.814814814814824,0)" xlink:href="#Z"/><use transform="matrix(0.07407407407407407,0,0,0.07407407407407407,54.592592592592595,0)" xlink:href="#aa"/><use transform="matrix(0.07407407407407407,0,0,0.07407407407407407,67.92592592592592,0)" xlink:href="#ab"/><use transform="matrix(0.07407407407407407,0,0,0.07407407407407407,81.25925925925925,0)" xlink:href="#W"/><use transform="matrix(0.07407407407407407,0,0,0.07407407407407407,88.66666666666666,0)" xlink:href="#Z"/><use transform="matrix(0.07407407407407407,0,0,0.07407407407407407,100.44444444444443,0)" xlink:href="#ac"/></g><use transform="matrix(0.08641975308641975,0,0,0.08641975308641975,0,0)" xlink:href="#S" id="i"/><path fill="#333" d="M115-107v71H90v-71H19v-25h71v-71h25v71h71v25h-71" id="ad"/><use transform="matrix(0.08641975308641975,0,0,0.08641975308641975,0,0)" xlink:href="#ad" id="j"/><path fill="#333" d="M120-19l41 4V0H29v-15l41-4v-178l-41 13v-15l66-39h25v219" id="ae"/><use transform="matrix(0.08641975308641975,0,0,0.08641975308641975,0,0)" xlink:href="#ae" id="k"/><path fill="#333" d="M102-142c-14-17-68-15-54 18 24 26 83 17 83 72 0 62-72 62-120 47v-45h12c4 23 16 37 43 37 35 0 39-37 9-46-31-9-65-19-64-61 0-52 59-55 108-45v43h-11" id="af"/><path fill="#333" d="M77-16l18 4V0H8v-12l18-4v-133l-17-5v-11h68v149zM41-197c-6-1-18 4-16-5l30-48h50v6" id="ag"/><path fill="#333" d="M15-82c-4-69 47-101 113-83l-1-69-17-4v-12h68v234l18 4V0h-63l-4-9C77 23 5-9 15-82zm112-66c-43-16-64 17-61 65 2 33 3 67 32 67 12 0 22-3 29-8v-124" id="ah"/><g id="l"><use transform="matrix(0.08641975308641975,0,0,0.08641975308641975,0,0)" xlink:href="#af"/><use transform="matrix(0.08641975308641975,0,0,0.08641975308641975,12.098765432098764,0)" xlink:href="#aa"/><use transform="matrix(0.08641975308641975,0,0,0.08641975308641975,27.65432098765432,0)" xlink:href="#ag"/><use transform="matrix(0.08641975308641975,0,0,0.08641975308641975,36.29629629629629,0)" xlink:href="#ah"/><use transform="matrix(0.08641975308641975,0,0,0.08641975308641975,53.58024691358025,0)" xlink:href="#aa"/></g><use transform="matrix(0.08641975308641975,0,0,0.08641975308641975,0,0)" xlink:href="#V" id="m"/><path fill="#333" d="M92-101v83l39 5V0H8v-13l28-5v-200l-30-5v-13h197v64h-17l-5-42c-27-3-59-2-89-2v96h57l6-30h15v80h-15l-6-31H92" id="ai"/><path fill="#333" d="M126-114c3-31-27-37-49-25v123l15 4V0H10v-12l16-4v-133l-16-5v-11h64l2 14c24-16 81-33 96 3 30-24 105-39 105 27v105l17 4V0h-82v-12l14-4v-98c4-33-27-37-51-24 5 35 0 82 2 122l17 4V0h-83v-12l15-4v-98" id="aj"/><g id="n"><use transform="matrix(0.08641975308641975,0,0,0.08641975308641975,0,0)" xlink:href="#ai"/><use transform="matrix(0.08641975308641975,0,0,0.08641975308641975,18.925925925925924,0)" xlink:href="#W"/><use transform="matrix(0.08641975308641975,0,0,0.08641975308641975,27.5679012345679,0)" xlink:href="#aj"/></g><path fill="#333" d="M185-72C185 13 82 14 19-9v-63h16c2 37 21 58 61 58 46 0 69-51 31-71-42-23-106-23-106-90 0-69 87-70 148-56v56h-16l-7-32c-26-25-110-13-82 35 39 34 121 26 121 100" id="ak"/><path fill="#333" d="M155 0h-10L58-199v181l32 5V0H6v-13l30-5v-200l-30-5v-13h93l67 155 69-155h94v13l-30 5v200l30 5V0H212v-13l32-5v-181" id="al"/><g id="o"><use transform="matrix(0.07407407407407407,0,0,0.07407407407407407,0,0)" xlink:href="#ak"/><use transform="matrix(0.07407407407407407,0,0,0.07407407407407407,14.814814814814813,0)" xlink:href="#V"/><use transform="matrix(0.07407407407407407,0,0,0.07407407407407407,25.185185185185183,0)" xlink:href="#al"/></g><path fill="#333" d="M15-120v-16l167-82v25L48-128l134 65v25zm167 95V0H15v-25h167" id="am"/><use transform="matrix(0.08641975308641975,0,0,0.08641975308641975,0,0)" xlink:href="#am" id="p"/><path fill="#333" d="M23-231c66-19 162-2 134 80C139-97 87-78 49-40h116V0H15v-33c34-46 90-67 94-145 2-38-37-54-63-33l-8 34H23v-54" id="an"/><use transform="matrix(0.08641975308641975,0,0,0.08641975308641975,0,0)" xlink:href="#an" id="q"/><g id="r"><use transform="matrix(0.07407407407407408,0,0,0.07407407407407408,0,0)" xlink:href="#ak"/><use transform="matrix(0.07407407407407408,0,0,0.07407407407407408,14.814814814814817,0)" xlink:href="#V"/><use transform="matrix(0.07407407407407408,0,0,0.07407407407407408,25.185185185185187,0)" xlink:href="#al"/></g><use transform="matrix(0.08641975308641975,0,0,0.08641975308641975,0,0)" xlink:href="#V" id="s"/><use transform="matrix(0.08641975308641975,0,0,0.08641975308641975,0,0)" xlink:href="#V" id="t"/><path fill="#333" d="M108-230c-35 27-44 80-44 143s8 116 44 144v20C7 49-17-153 67-223c12-10 25-19 41-27v20" id="ao"/><g id="u"><use transform="matrix(0.08641975308641975,0,0,0.08641975308641975,0,0)" xlink:href="#ao"/><use transform="matrix(0.08641975308641975,0,0,0.08641975308641975,10.28395061728395,0)" xlink:href="#aj"/></g><path fill="#333" d="M98-157l13 55H70l12-56-51 41-16-37 54-15-54-16 16-38 51 41-12-55h41l-13 55 50-40 17 37-55 16 55 15-17 37" id="ap"/><use transform="matrix(0.08641975308641975,0,0,0.08641975308641975,0,0)" xlink:href="#ap" id="v"/><path fill="#333" d="M109-18c15 0 31-2 42-6v14c-11 9-31 13-51 13-59 0-86-28-88-86-3-75 66-101 135-80v48h-13c-3-20-7-40-34-37-51 7-55 138 9 134" id="aq"/><path fill="#333" d="M186-86c2 69-46 103-114 85l1 62 25 4v12H5V65l18-4v-210l-18-5v-11h67v8c12-8 26-13 46-13 49 2 67 30 68 84zm-83 71c28 0 31-33 31-69 0-34-2-66-30-66-12 0-23 3-31 7v124c9 2 20 4 30 4" id="ar"/><path fill="#333" d="M12-250C113-222 137-19 52 49 40 59 28 69 12 77V57C48 29 56-24 56-87s-9-116-44-143v-20" id="as"/><g id="w"><use transform="matrix(0.08641975308641975,0,0,0.08641975308641975,0,0)" xlink:href="#aq"/><use transform="matrix(0.08641975308641975,0,0,0.08641975308641975,13.74074074074074,0)" xlink:href="#ar"/><use transform="matrix(0.08641975308641975,0,0,0.08641975308641975,31.02469135802469,0)" xlink:href="#as"/></g><path fill="#24292f" d="M131-38C116-19 107 4 75 4 30 4 13-32 13-80c0-53 23-88 74-90 30-1 40 20 52 39l8-34h50c-17 47-40 99-9 149 8 0 11 6 9 16h-56c-4-11-8-25-10-38zM87-22c47-9 56-115 6-127-29 3-28 37-28 68 0 27 0 55 22 59" id="at"/><use transform="matrix(0.08641975308641975,0,0,0.08641975308641975,0,0)" xlink:href="#at" id="x"/><path fill="#333" d="M203-218l-32-5v-13h84v13l-30 5V0h-21L59-189v171l32 5V0H7v-13l30-5v-200l-30-5v-13h81L203-85v-133" id="au"/><path fill="#333" d="M75-13V0H4v-13l17-5 84-220h51l83 220 18 5V0H152v-13l28-5-23-61H67L45-18zm38-189L74-98h76zm75-104c5 50-49 61-78 31-11-11-24 1-23 16H69c-7-51 49-61 77-32 11 11 23 0 23-15h19" id="av"/><path fill="#333" d="M140-221c-55 0-64 47-64 103S8-14 140-14c56 0 64-48 64-104s-9-103-64-103zm0 225C61 4 18-36 18-118c0-81 41-120 122-120 80 0 122 39 122 120C262-36 219 4 140 4" id="aw"/><g id="y"><use transform="matrix(0.07407407407407408,0,0,0.07407407407407408,0,0)" xlink:href="#au"/><use transform="matrix(0.07407407407407408,0,0,0.07407407407407408,19.185185185185187,0)" xlink:href="#av"/><use transform="matrix(0.07407407407407408,0,0,0.07407407407407408,38.370370370370374,0)" xlink:href="#aw"/></g><g id="z"><use transform="matrix(0.08641975308641975,0,0,0.08641975308641975,0,0)" xlink:href="#aq"/><use transform="matrix(0.08641975308641975,0,0,0.08641975308641975,13.74074074074074,0)" xlink:href="#ar"/></g><path fill="#333" d="M13-69v-31h94v31H13" id="ax"/><use transform="matrix(0.08641975308641975,0,0,0.08641975308641975,0,0)" xlink:href="#ax" id="A"/><g id="B"><use transform="matrix(0.08641975308641975,0,0,0.08641975308641975,0,0)" xlink:href="#Y"/><use transform="matrix(0.08641975308641975,0,0,0.08641975308641975,13.74074074074074,0)" xlink:href="#S"/><use transform="matrix(0.08641975308641975,0,0,0.08641975308641975,31.02469135802469,0)" xlink:href="#X"/><use transform="matrix(0.08641975308641975,0,0,0.08641975308641975,41.30864197530864,0)" xlink:href="#Z"/><use transform="matrix(0.08641975308641975,0,0,0.08641975308641975,55.04938271604938,0)" xlink:href="#aa"/><use transform="matrix(0.08641975308641975,0,0,0.08641975308641975,70.60493827160494,0)" xlink:href="#ah"/><use transform="matrix(0.08641975308641975,0,0,0.08641975308641975,87.88888888888889,0)" xlink:href="#aa"/></g><g id="C"><use transform="matrix(0.08641975308641975,0,0,0.08641975308641975,0,0)" xlink:href="#aq"/><use transform="matrix(0.08641975308641975,0,0,0.08641975308641975,13.74074074074074,0)" xlink:href="#ar"/></g><path fill="#333" d="M-3 50V25h186v25H-3" id="ay"/><path fill="#333" d="M90-170c54-1 76 32 76 87 1 56-23 87-77 87-53 0-75-32-75-87s23-86 76-87zM89-14c28-2 26-38 26-69s3-69-26-69c-27 0-24 39-24 69s-3 66 24 69" id="az"/><g id="D"><use transform="matrix(0.08641975308641973,0,0,0.08641975308641973,0,0)" xlink:href="#aj"/><use transform="matrix(0.08641975308641973,0,0,0.08641975308641973,25.8395061728395,0)" xlink:href="#W"/><use transform="matrix(0.08641975308641973,0,0,0.08641975308641973,34.481481481481474,0)" xlink:href="#S"/><use transform="matrix(0.08641975308641973,0,0,0.08641975308641973,51.76543209876541,0)" xlink:href="#ay"/><use transform="matrix(0.08641975308641973,0,0,0.08641975308641973,67.32098765432097,0)" xlink:href="#ar"/><use transform="matrix(0.08641975308641973,0,0,0.08641975308641973,84.60493827160492,0)" xlink:href="#az"/><use transform="matrix(0.08641975308641973,0,0,0.08641975308641973,100.16049382716047,0)" xlink:href="#af"/><use transform="matrix(0.08641975308641973,0,0,0.08641975308641973,112.25925925925924,0)" xlink:href="#X"/><use transform="matrix(0.08641975308641973,0,0,0.08641975308641973,122.54320987654319,0)" xlink:href="#af"/></g><use transform="matrix(0.08641975308641975,0,0,0.08641975308641975,0,0)" xlink:href="#aj" id="E"/><path fill="#333" d="M21 4H-4l83-241h25" id="aA"/><g id="F"><use transform="matrix(0.08641975308641975,0,0,0.08641975308641975,0,0)" xlink:href="#aj"/><use transform="matrix(0.08641975308641975,0,0,0.08641975308641975,25.839506172839506,0)" xlink:href="#W"/><use transform="matrix(0.08641975308641975,0,0,0.08641975308641975,34.48148148148148,0)" xlink:href="#S"/><use transform="matrix(0.08641975308641975,0,0,0.08641975308641975,51.76543209876543,0)" xlink:href="#ay"/><use transform="matrix(0.08641975308641975,0,0,0.08641975308641975,67.32098765432099,0)" xlink:href="#ar"/><use transform="matrix(0.08641975308641975,0,0,0.08641975308641975,84.60493827160494,0)" xlink:href="#az"/><use transform="matrix(0.08641975308641975,0,0,0.08641975308641975,100.1604938271605,0)" xlink:href="#af"/><use transform="matrix(0.08641975308641975,0,0,0.08641975308641975,112.25925925925925,0)" xlink:href="#X"/><use transform="matrix(0.08641975308641975,0,0,0.08641975308641975,122.5432098765432,0)" xlink:href="#af"/><use transform="matrix(0.08641975308641975,0,0,0.08641975308641975,134.64197530864197,0)" xlink:href="#aA"/><use transform="matrix(0.08641975308641975,0,0,0.08641975308641975,143.28395061728395,0)" xlink:href="#an"/></g><path fill="#333" d="M64-135c49-21 105 0 105 62 0 50-26 77-73 77-64 0-82-53-84-120-2-89 54-142 143-115v54h-15c4-38-43-60-62-22-8 16-12 39-14 64zm54 65c3-37-19-64-54-46 3 43-3 92 31 102 23-3 21-26 23-56" id="aB"/><use transform="matrix(0.08024691358024688,0,0,0.08024691358024688,0,0)" xlink:href="#aB" id="G"/><g id="H"><use transform="matrix(0.08024691358024688,0,0,0.08024691358024688,0,0)" xlink:href="#ao"/><use transform="matrix(0.08024691358024688,0,0,0.08024691358024688,9.54938271604938,0)" xlink:href="#ae"/></g><g id="I"><use transform="matrix(0.08024691358024688,0,0,0.08024691358024688,0,0)" xlink:href="#aj"/><use transform="matrix(0.08024691358024688,0,0,0.08024691358024688,23.99382716049382,0)" xlink:href="#ab"/><use transform="matrix(0.08024691358024688,0,0,0.08024691358024688,38.43827160493826,0)" xlink:href="#af"/><use transform="matrix(0.08024691358024688,0,0,0.08024691358024688,49.67283950617282,0)" xlink:href="#as"/></g><path fill="#333" d="M108-123c37 3 59 22 60 59C169 8 81 11 16-4l-2-57h16c4 25 8 49 41 47 31-1 44-21 45-52 2-37-24-47-61-46v-22c33 1 52-9 50-44 6-38-35-53-61-33l-7 34H21v-54c52-13 140-14 136 51-2 33-19 52-49 57" id="aC"/><use transform="matrix(0.08024691358024688,0,0,0.08024691358024688,0,0)" xlink:href="#aC" id="J"/><g id="K"><use transform="matrix(0.08024691358024688,0,0,0.08024691358024688,0,0)" xlink:href="#ao"/><use transform="matrix(0.08024691358024688,0,0,0.08024691358024688,9.54938271604938,0)" xlink:href="#an"/></g><g id="L"><use transform="matrix(0.08024691358024688,0,0,0.08024691358024688,0,0)" xlink:href="#aj"/><use transform="matrix(0.08024691358024688,0,0,0.08024691358024688,23.99382716049382,0)" xlink:href="#ab"/><use transform="matrix(0.08024691358024688,0,0,0.08024691358024688,38.43827160493826,0)" xlink:href="#af"/><use transform="matrix(0.08024691358024688,0,0,0.08024691358024688,49.67283950617282,0)" xlink:href="#as"/></g></defs></g></svg>